<svg width="70" height="70" viewBox="0 0 70 70" fill="none" xmlns="http://www.w3.org/2000/svg">
<path d="M42.6562 9.84375C43.2359 9.84548 43.7913 10.0765 44.2011 10.4864C44.611 10.8962 44.842 11.4516 44.8438 12.0312V30.625H52.5V9.84375H42.6562Z" fill="#8585F2"/>
<path d="M44.8438 16.4062V47.0312H5.46875C4.88912 47.0295 4.33373 46.7985 3.92387 46.3886C3.51401 45.9788 3.28298 45.4234 3.28125 44.8438V16.4062H44.8438Z" fill="#8585F2"/>
<path d="M29.5312 62.3438H25.1562V66.7188H29.5312V62.3438Z" fill="#E6E7E8"/>
<path d="M13.125 3.28125H50.3125C50.8921 3.28298 51.4475 3.51401 51.8574 3.92387C52.2672 4.33373 52.4983 4.88912 52.5 5.46875V9.84375H10.9375V5.46875C10.9392 4.88912 11.1703 4.33373 11.5801 3.92387C11.99 3.51401 12.5454 3.28298 13.125 3.28125Z" fill="#FF6243"/>
<path d="M10.9375 9.84375H42.6562C43.2359 9.84548 43.7913 10.0765 44.2011 10.4864C44.611 10.8962 44.842 11.4516 44.8438 12.0312V16.4062H3.28125V12.0312C3.28298 11.4516 3.51401 10.8962 3.92387 10.4864C4.33373 10.0765 4.88912 9.84548 5.46875 9.84375H10.9375Z" fill="#FF7956"/>
<path d="M44.8438 18.5938V47.0312H16.4062L44.8438 18.5938Z" fill="#8585F2"/>
<path d="M29.5312 57.9688V62.3438H25.1562V47.0312V37.1875L26.25 33.9062H27.3438H28.4375L29.5312 37.1875V47.0312V57.9688Z" fill="#FFA733"/>
<path d="M18.5938 61.25V66.7188H9.84375V47.0312V29.5312H18.5938V35V41.5625V47.0312V48.125V54.6875V61.25Z" fill="#FFDE55"/>
<path d="M63.0875 39.8891C62.8312 40.8971 62.4296 41.8624 61.8953 42.7547L64.1047 45.6969L61.0094 48.7922L58.0672 46.5828C57.1749 47.1171 56.2096 47.5187 55.2016 47.775L54.6875 51.4062H50.3125L49.7984 47.775C48.7904 47.5187 47.8251 47.1171 46.9328 46.5828L43.9906 48.7922L42.2297 47.0312L40.8953 45.6969L43.1047 42.7547C42.5704 41.8624 42.1688 40.8971 41.9125 39.8891L38.2812 39.375V35L41.9125 34.4859C42.1688 33.4779 42.5704 32.5126 43.1047 31.6203L40.8953 28.6781L43.9906 25.5828L44.8438 26.2281L46.9328 27.7922C47.8251 27.2579 48.7904 26.8563 49.7984 26.6L50.3125 22.9688H54.6875L55.2016 26.6C56.2096 26.8563 57.1749 27.2579 58.0672 27.7922L61.0094 25.5828L64.1047 28.6781L61.8953 31.6203C62.4296 32.5126 62.8312 33.4779 63.0875 34.4859L66.7188 35V39.375L63.0875 39.8891Z" fill="#FFA733"/>
<path d="M52.5 42.6562C55.5203 42.6562 57.9688 40.2078 57.9688 37.1875C57.9688 34.1672 55.5203 31.7188 52.5 31.7188C49.4797 31.7188 47.0312 34.1672 47.0312 37.1875C47.0312 40.2078 49.4797 42.6562 52.5 42.6562Z" fill="#FF6243"/>
<path d="M8.75 12.0312H6.5625V14.2188H8.75V12.0312Z" fill="#FFD422"/>
<path d="M13.125 12.0312H10.9375V14.2188H13.125V12.0312Z" fill="#00CCB3"/>
<path d="M17.5 12.0312H15.3125V14.2188H17.5V12.0312Z" fill="#FF5023"/>
<path d="M16.4062 5.46875H14.2188V7.65625H16.4062V5.46875Z" fill="#FFD422"/>
<path d="M20.7812 5.46875H18.5938V7.65625H20.7812V5.46875Z" fill="#00CCB3"/>
<path d="M25.1562 5.46875H22.9688V7.65625H25.1562V5.46875Z" fill="#D43237"/>
<path d="M18.5938 47.0312H15.3125V49.2188H18.5938V47.0312Z" fill="#F9893D"/>
<path d="M18.5938 40.4688H15.3125V42.6562H18.5938V40.4688Z" fill="#F9893D"/>
<path d="M18.5938 33.9062H15.3125V36.0938H18.5938V33.9062Z" fill="#F9893D"/>
<path d="M18.5938 53.5938H15.3125V55.7812H18.5938V53.5938Z" fill="#F9893D"/>
<path d="M18.5938 60.1562H15.3125V62.3438H18.5938V60.1562Z" fill="#F9893D"/>
<path d="M28.4375 30.625H26.25V33.9062H28.4375V30.625Z" fill="#676767"/>
<path d="M53.5938 26.25H51.4062V28.4375H53.5938V26.25Z" fill="#EE8700"/>
<path d="M45.5401 28.68L43.993 30.2266L45.5396 31.7736L47.0866 30.2271L45.5401 28.68Z" fill="#EE8700"/>
<path d="M43.75 36.0938H41.5625V38.2812H43.75V36.0938Z" fill="#EE8700"/>
<path d="M45.5391 42.6009L43.9923 44.1477L45.5391 45.6945L47.0859 44.1477L45.5391 42.6009Z" fill="#EE8700"/>
<path d="M53.5938 45.9375H51.4062V48.125H53.5938V45.9375Z" fill="#EE8700"/>
<path d="M59.4615 42.6014L57.9144 44.1479L59.461 45.695L61.008 44.1485L59.4615 42.6014Z" fill="#EE8700"/>
<path d="M63.4375 36.0938H61.25V38.2812H63.4375V36.0938Z" fill="#EE8700"/>
<path d="M59.4604 28.6805L57.9136 30.2273L59.4604 31.7741L61.0072 30.2273L59.4604 28.6805Z" fill="#EE8700"/>
<path d="M32.8125 59.0625H29.5312V56.875H31.7188V52.5H33.9062V57.9688C33.9062 58.2588 33.791 58.537 33.5859 58.7421C33.3808 58.9473 33.1026 59.0625 32.8125 59.0625Z" fill="#EE8700"/>
</svg>
