<svg width="70" height="70" viewBox="0 0 70 70" fill="none" xmlns="http://www.w3.org/2000/svg">
<g clip-path="url(#clip0_20_1377)">
<path d="M35 70C54.33 70 70 54.33 70 35C70 15.67 54.33 0 35 0C15.67 0 0 15.67 0 35C0 54.33 15.67 70 35 70Z" fill="#F9893D"/>
<path opacity="0.1" d="M55.238 11.4864L55.2107 11.4645C54.5709 10.841 53.6904 10.4527 52.7224 10.4527C50.9779 10.4527 49.5177 11.7161 49.2115 13.373H39.6029L37.8146 11.5847C37.4865 11.1636 37.0709 10.8244 36.5951 10.5839C36.1138 10.3433 35.5724 10.2065 34.9982 10.2065C33.1662 10.2065 31.6513 11.5956 31.449 13.373H21.6654L19.8771 11.5847L19.8716 11.59C19.2208 10.8957 18.3021 10.4527 17.274 10.4527C15.3052 10.4527 13.6974 12.0549 13.6974 14.0293C13.6974 15.0411 14.124 15.9543 14.8021 16.6104L19.6255 21.4284C17.8318 24.1794 16.7544 27.4331 16.6451 30.9168C14.9716 31.2174 13.6974 32.6778 13.6974 34.4333C13.6974 35.4504 14.124 36.3636 14.8021 37.0144L29.7263 51.9333V59.8026C29.7263 60.4371 29.9998 61.0002 30.4318 61.3941L30.4263 61.3994L38.816 69.7889C56.3502 67.8872 70 53.0398 70 34.9999C70 31.4177 69.4592 27.9621 68.4593 24.7075L55.2654 11.5136C55.2544 11.508 55.2435 11.4971 55.238 11.4864Z" fill="black"/>
<path d="M29.7255 30.5586H40.2747V53.392H29.7255V30.5586Z" fill="#7D7DDE"/>
<path d="M29.7255 30.5586H33.2419V53.392H29.7255V30.5586Z" fill="#7D7DDE"/>
<path d="M33.2419 30.5586H36.7583V53.392H33.2419V30.5586Z" fill="#8585F2"/>
<path d="M35.0966 19.9246L32.643 24.1519L29.7255 30.5584H40.2746L37.3571 24.1519L35.0966 19.9246Z" fill="#FED35B"/>
<path d="M32.6431 24.152H37.357L35 18.9761L32.6431 24.152Z" fill="#344D5B"/>
<path d="M17.2754 38.0113C15.3031 38.0113 13.6984 36.4067 13.6984 34.4343C13.6984 32.4618 15.3031 30.8572 17.2754 30.8572C19.2478 30.8572 20.8525 32.4618 20.8525 34.4343C20.8525 36.4067 19.2478 38.0113 17.2754 38.0113ZM17.2754 32.1641C16.0236 32.1641 15.0053 33.1825 15.0053 34.4343C15.0053 35.686 16.0236 36.7044 17.2754 36.7044C18.5273 36.7044 19.5456 35.686 19.5456 34.4343C19.5456 33.1825 18.5273 32.1641 17.2754 32.1641Z" fill="#EDEDED"/>
<path d="M52.7248 38.0113C50.7525 38.0113 49.1477 36.4067 49.1477 34.4343C49.1477 32.4618 50.7525 30.8572 52.7248 30.8572C54.6971 30.8572 56.3016 32.4618 56.3016 34.4343C56.3016 36.4067 54.6971 38.0113 52.7248 38.0113ZM52.7248 32.1641C51.4729 32.1641 50.4546 33.1825 50.4546 34.4343C50.4546 35.686 51.4729 36.7044 52.7248 36.7044C53.9764 36.7044 54.9947 35.686 54.9947 34.4343C54.9947 33.1825 53.9764 32.1641 52.7248 32.1641Z" fill="#EDEDED"/>
<path d="M17.2754 17.6053C15.3031 17.6053 13.6984 16.0007 13.6984 14.0282C13.6984 12.0558 15.3031 10.4512 17.2754 10.4512C19.2478 10.4512 20.8525 12.0558 20.8525 14.0282C20.8525 16.0007 19.2478 17.6053 17.2754 17.6053ZM17.2754 11.7581C16.0236 11.7581 15.0053 12.7765 15.0053 14.0282C15.0053 15.28 16.0236 16.2984 17.2754 16.2984C18.5273 16.2984 19.5456 15.28 19.5456 14.0282C19.5456 12.7765 18.5273 11.7581 17.2754 11.7581Z" fill="#EDEDED"/>
<path d="M52.7248 17.6053C50.7525 17.6053 49.1477 16.0007 49.1477 14.0282C49.1477 12.0558 50.7525 10.4512 52.7248 10.4512C54.6971 10.4512 56.3016 12.0558 56.3016 14.0282C56.3016 16.0007 54.6971 17.6053 52.7248 17.6053ZM52.7248 11.7581C51.4729 11.7581 50.4546 12.7765 50.4546 14.0282C50.4546 15.28 51.4729 16.2984 52.7248 16.2984C53.9764 16.2984 54.9947 15.28 54.9947 14.0282C54.9947 12.7765 53.9764 11.7581 52.7248 11.7581Z" fill="#EDEDED"/>
<path d="M35 17.3631C33.0277 17.3631 31.423 15.7585 31.423 13.7861C31.423 11.8137 33.0277 10.209 35 10.209C36.9724 10.209 38.5771 11.8137 38.5771 13.7861C38.5771 15.7585 36.9724 17.3631 35 17.3631ZM35 11.5159C33.7482 11.5159 32.7299 12.5343 32.7299 13.7861C32.7299 15.0378 33.7482 16.0562 35 16.0562C36.2519 16.0562 37.2702 15.0378 37.2702 13.7861C37.2702 12.5343 36.2519 11.5159 35 11.5159Z" fill="#EDEDED"/>
<path d="M17.9289 31.5107H16.6219C16.6219 24.0469 21.0331 17.545 27.5874 14.6817H20.199V13.3748H32.0887L32.1953 14.673C23.9288 16.0396 17.9289 23.1209 17.9289 31.5107Z" fill="#EDEDED"/>
<path d="M53.3781 31.5107H52.0711C52.0711 23.1209 46.0714 16.0396 37.8049 14.673L37.9115 13.3748H49.8012V14.6817H42.4126C48.9669 17.545 53.3781 24.0469 53.3781 31.5107Z" fill="#EDEDED"/>
<path d="M29.7255 55.2185V59.8003C29.7255 61.0032 30.7007 61.9785 31.9037 61.9785H38.0965C39.2995 61.9785 40.2747 61.0032 40.2747 59.8003V55.2185H29.7255Z" fill="#D6B24E"/>
<path d="M29.7255 53.0762H40.2747V55.4374H29.7255V53.0762Z" fill="#EDEDED"/>
</g>
<defs>
<clipPath id="clip0_20_1377">
<rect width="70" height="70" fill="white"/>
</clipPath>
</defs>
</svg>
