<svg width="70" height="70" viewBox="0 0 70 70" fill="none" xmlns="http://www.w3.org/2000/svg">
<g clip-path="url(#clip0_19_877)">
<path d="M12.5002 14.7166L6.25019 7.33545L0 14.7166H3.26891V25.4882H9.23132V14.7166H12.5002Z" fill="#EEEEEE"/>
<path d="M5.04853 12.3877L7.91793 9.30487L6.25019 7.33545L0 14.7166H3.26891V25.4882H5.56156V13.9525C4.83449 13.8143 4.54432 12.9295 5.04853 12.3877Z" fill="#E0E0E0"/>
<path d="M47.8059 14.7166L41.5557 7.33545L35.3057 14.7166H38.5746V25.4882H44.537V14.7166H47.8059Z" fill="#EEEEEE"/>
<path d="M40.3542 12.3877L43.2236 9.30487L41.5557 7.33545L35.3057 14.7166H38.5746V25.4882H40.8672V13.9525C40.14 13.8143 39.85 12.9295 40.3542 12.3877Z" fill="#E0E0E0"/>
<path d="M30.0766 7.38111L23.8266 0L17.5764 7.38111H20.8453V18.1527H26.8077V7.38111H30.0766Z" fill="#EEEEEE"/>
<path d="M22.6249 5.05227L25.4943 1.96942L23.8266 0L17.5764 7.38111H20.8453V18.1527H23.138V6.61709C22.4108 6.47889 22.1207 5.59402 22.6249 5.05227Z" fill="#E0E0E0"/>
<path d="M34.8446 33.7097V26.1576C34.8446 21.7769 31.7358 18.0082 27.4239 17.1617C20.8533 13.2254 12.4875 17.9428 12.4875 25.5842V33.7096C12.4875 36.8965 15.0793 39.4799 18.2765 39.4799H29.0557C32.2528 39.4801 34.8446 36.8965 34.8446 33.7097Z" fill="#4C4C4C"/>
<path d="M28.1863 41.2008V33.6074H18.853V41.2008L15.0292 42.6645C12.792 43.5208 11.3154 45.6627 11.3154 48.0514V58.4743H36.4024V48.1712C36.4024 45.7234 34.8531 43.5419 32.5369 42.7287L28.1863 41.2008Z" fill="#F9893D"/>
<path d="M13.7609 49.7324C13.7609 47.3437 15.2375 45.2018 17.4747 44.3455L21.2985 42.8818V35.2885H28.1863V33.6074H18.853V41.2008L15.0292 42.6645C12.792 43.5208 11.3154 45.6627 11.3154 48.0514V58.4743H13.7608L13.7609 49.7324Z" fill="#F96B31"/>
<path d="M28.1865 33.6072H18.8532V41.2005L18.8484 41.2023L23.1522 47.0443L23.1485 53.476C23.148 53.8889 23.4826 54.2241 23.8956 54.2244H23.8963C24.3091 54.2244 24.6437 53.89 24.6442 53.4772L24.6479 46.8653L28.1864 41.2001L28.1865 33.6072Z" fill="#F9B995"/>
<path d="M23.8591 37.961C27.7789 37.961 30.9565 34.3487 30.9565 29.8927C30.9565 25.4367 27.7789 21.8245 23.8591 21.8245C19.9393 21.8245 16.7617 25.4367 16.7617 29.8927C16.7617 34.3487 19.9393 37.961 23.8591 37.961Z" fill="#FDD2B5"/>
<path d="M27.4239 17.1617C20.8533 13.2254 12.4875 17.9428 12.4875 25.5842V28.3583L14.5774 27.9794C18.544 27.2603 22.0873 25.0625 24.4867 21.8329C27.704 25.5725 31.1677 29.0958 34.8446 32.3872V26.1576C34.8446 21.7769 31.7358 18.0082 27.4239 17.1617Z" fill="#3A3A3A"/>
<path d="M36.7918 69.9999H10.926L7.44336 50.1604H40.2746L36.7918 69.9999Z" fill="#8585F2"/>
<path d="M13.201 52.9112H39.7917L40.2746 50.1604H7.44336L10.9262 69.9999H13.6529L11.0935 55.4204C10.8636 54.1109 11.8713 52.9112 13.201 52.9112Z" fill="#6868DD"/>
<path d="M25.9079 60.757H21.8104C21.3972 60.757 21.0625 60.4221 21.0625 60.0091C21.0625 59.5961 21.3972 59.2612 21.8104 59.2612H25.9079C26.321 59.2612 26.6558 59.5961 26.6558 60.0091C26.6558 60.4221 26.321 60.757 25.9079 60.757Z" fill="white"/>
<path d="M69.9999 44.8619V40.2601L66.719 39.4613C66.4796 38.6184 66.1439 37.8161 65.7256 37.0657L67.4842 34.1803L64.2176 30.9263L61.3289 32.6734C60.5768 32.2544 59.7723 31.9177 58.927 31.6768L58.1226 28.3992H53.5028L52.7008 31.6673C51.8546 31.9059 51.0492 32.2402 50.296 32.6569L47.3992 30.9051L44.1325 34.1591L45.8862 37.0364C45.4656 37.7856 45.1276 38.587 44.8858 39.4288L41.5955 40.2301V44.8318L44.8763 45.6307C45.1158 46.4735 45.4514 47.2758 45.8698 48.0262L44.1111 50.9117L47.3778 54.1656L50.2665 52.4186C51.0185 52.8375 51.8231 53.1742 52.6683 53.4152L53.4727 56.6928H58.0926L58.8946 53.4246C59.7407 53.1861 60.5462 52.8518 61.2996 52.435L64.1963 54.1868L67.463 50.9329L65.7093 48.0556C66.1299 47.3064 66.4679 46.5049 66.7098 45.6631L69.9999 44.8619Z" fill="#F9893D"/>
<path d="M51.8101 51.1474C51.5899 51.046 51.3711 50.9349 51.1597 50.817C50.5845 50.4963 49.8812 50.5086 49.3174 50.8496L47.6561 51.8543L46.4292 50.6323L47.436 48.9806C47.7798 48.4162 47.7936 47.7106 47.4719 47.1334C47.1178 46.4983 46.8381 45.8241 46.6407 45.1294C46.4602 44.4943 45.9521 44.0052 45.3105 43.849L43.4297 43.391V41.6708L45.32 41.2104C45.9597 41.0546 46.4669 40.5679 46.6486 39.9352C46.8479 39.2417 47.1295 38.5685 47.4858 37.9339C47.8102 37.3559 47.7976 36.6479 47.4526 36.0819L46.4507 34.4382L47.6775 33.2162L49.3469 34.2258C49.9087 34.5655 50.6095 34.579 51.184 34.2613C51.8229 33.9078 52.5007 33.6287 53.1986 33.432C53.8344 33.2529 54.3247 32.7455 54.4822 32.104L54.9414 30.2327H56.6843L57.1458 32.1134C57.3028 32.753 57.7907 33.2593 58.4242 33.44C58.5812 33.4847 58.7393 33.5344 58.894 33.5873C59.8043 33.8993 60.7898 33.4534 61.1679 32.5864C60.4621 32.2079 59.7124 31.9004 58.927 31.6764L58.1226 28.3989H53.5028L52.7008 31.6671C51.8548 31.9057 51.0492 32.24 50.296 32.6567L47.3992 30.9049L44.1325 34.1588L45.8863 37.0363C45.4657 37.7855 45.1276 38.5868 44.8858 39.4287L41.5955 40.23V44.8319L44.8765 45.6307C45.116 46.4736 45.4516 47.2759 45.8699 48.0263L44.1113 50.9117L47.3779 54.1657L50.2666 52.4186C51.0187 52.8376 51.8232 53.1743 52.6685 53.4153L52.7087 53.5793C53.1318 52.6598 52.7298 51.5712 51.8101 51.1474Z" fill="#F9893D"/>
<path d="M51.103 38.3624H54.2482C54.7107 38.2693 54.9711 37.7354 54.7177 37.3027C54.0227 36.3629 54.1844 35.0018 55.2009 34.3688C55.8388 33.9646 56.6513 33.9646 57.2892 34.3688C58.3058 35.0019 58.4674 36.3629 57.7723 37.3027C57.5189 37.7354 57.7794 38.2692 58.2418 38.3624H61.3951V41.6301C61.3021 42.0926 60.7681 42.353 60.3354 42.0996C59.3955 41.4047 58.0342 41.5664 57.4012 42.5827C56.9969 43.2206 56.9969 44.033 57.4012 44.6709C58.0345 45.6872 59.3955 45.8489 60.3354 45.154C60.7681 44.9006 61.3021 45.161 61.3951 45.6235V48.7158H51.1171L51.103 38.3624Z" fill="#EEEEEE"/>
<path d="M53.4069 44.287L53.3988 38.3623H51.103L51.1172 48.7157H61.3953V46.4234H55.5467C54.366 46.4235 53.4085 45.4675 53.4069 44.287Z" fill="#E0E0E0"/>
<path d="M32.7418 60.2632C33.6598 60.2632 34.404 59.0983 34.404 57.6615C34.404 56.2246 33.6598 55.0598 32.7418 55.0598C31.8238 55.0598 31.0796 56.2246 31.0796 57.6615C31.0796 59.0983 31.8238 60.2632 32.7418 60.2632Z" fill="white"/>
<path d="M29.2873 63.2439C29.3329 64.1844 28.8555 64.9233 28.221 64.8943C27.5865 64.8653 27.0352 64.0793 26.9896 63.1388C26.944 62.1982 27.4214 61.4594 28.0559 61.4884C28.6904 61.5174 29.2417 62.3034 29.2873 63.2439Z" fill="white"/>
</g>
<defs>
<clipPath id="clip0_19_877">
<rect width="70" height="70" fill="white"/>
</clipPath>
</defs>
</svg>
