<svg width="70" height="70" viewBox="0 0 70 70" fill="none" xmlns="http://www.w3.org/2000/svg">
<g clip-path="url(#clip0_1_13012)">
<path d="M17.7693 43.2573C18.0458 42.9454 18.174 42.5282 18.1226 42.1136C17.7152 38.7996 17.5071 35.4258 17.5071 32.0833C17.5071 28.7408 17.7151 25.367 18.1226 22.0529C18.1739 21.6385 18.0456 21.2212 17.7693 20.9092C17.4902 20.5959 17.0939 20.4165 16.6752 20.4165H3.23982C2.62145 20.4165 2.07156 20.8053 1.86348 21.3878C0.626855 24.8757 0 28.4746 0 32.0834C0 35.6836 0.626855 39.2811 1.86361 42.7773C2.07156 43.3612 2.62158 43.75 3.23996 43.75H16.6753C17.0941 43.75 17.4902 43.5706 17.7693 43.2573Z" fill="#F9893D"/>
<path d="M22.4312 16.9518C22.7076 17.2978 23.1264 17.5 23.571 17.5H40.6223C41.0668 17.5 41.4857 17.2978 41.7621 16.9518C42.0386 16.6042 42.144 16.1499 42.0442 15.7184C39.8672 6.16943 35.9633 0 32.0967 0C28.23 0 24.3261 6.16943 22.1491 15.7184C22.0495 16.1499 22.1549 16.6042 22.4312 16.9518Z" fill="#F9893D"/>
<path d="M45.1359 16.3336C45.2755 17.013 45.8739 17.4999 46.5664 17.4999H58.1581C58.6882 17.4999 59.1755 17.2137 59.4318 16.7522C59.6912 16.2908 59.6768 15.7255 59.4005 15.2754C55.5167 8.98497 49.547 4.19407 42.5857 1.78577C42.0186 1.58493 41.3775 1.76444 40.9928 2.22723C40.6025 2.69003 40.5397 3.34518 40.8361 3.8736C42.6456 7.12354 44.133 11.4331 45.1359 16.3336Z" fill="#F9893D"/>
<path d="M19.0576 47.8331C18.918 47.1537 18.3196 46.6667 17.6271 46.6667H6.03543C5.50537 46.6667 5.0181 46.953 4.76176 47.4145C4.5024 47.8759 4.51676 48.4412 4.79307 48.8913C8.67697 55.1817 14.6465 59.9726 21.6078 62.3809C21.7616 62.4351 21.9241 62.4606 22.0837 62.4606C22.5083 62.4606 22.9187 62.2755 23.2007 61.9393C23.5911 61.4765 23.6538 60.8214 23.3574 60.293C21.5479 57.043 20.0606 52.7335 19.0576 47.8331Z" fill="#F9893D"/>
<path d="M6.03548 17.5001H17.6272C18.3197 17.5001 18.9179 17.0129 19.0577 16.3337C20.0606 11.4332 21.5481 7.12365 23.3575 3.87384C23.6539 3.34543 23.5911 2.69041 23.2008 2.22748C22.8105 1.76468 22.1692 1.58517 21.6079 1.78601C14.6466 4.19431 8.67688 8.98507 4.79311 15.2756C4.51667 15.7257 4.50245 16.291 4.76181 16.7525C5.01829 17.2138 5.50556 17.5001 6.03548 17.5001Z" fill="#F9893D"/>
<path d="M69.6899 60.8799L62.267 47.8688C64.3898 45.4434 66.4017 41.856 66.4017 39.1729C66.4017 37.8683 65.9058 37.0993 65.4899 36.682C63.1761 34.3834 57.7336 36.8771 54.2772 39.8949L40.9644 32.327C39.6167 31.8101 38.0808 32.1361 37.0578 33.1544L35.5135 34.6939C35.2257 34.9815 35.069 35.3788 35.0861 35.7862C35.1032 36.195 35.2913 36.5766 35.6047 36.8401L47.4528 46.8419C46.9427 47.4471 46.3985 48.0866 45.8372 48.7446C43.8597 51.0688 41.6542 53.658 40.0812 55.7486L37.1947 54.3101C36.6391 54.0267 35.9608 54.1392 35.5135 54.5822L32.5244 57.5645C32.2166 57.8734 32.06 58.3051 32.1026 58.7408C32.1481 59.1766 32.3847 59.5682 32.7466 59.8117L38.4855 63.627L42.3095 69.3521C42.5518 69.7152 42.945 69.9502 43.3781 69.993C43.4265 69.9972 43.475 70.0001 43.5234 70.0001C43.9081 70.0001 44.2785 69.8477 44.555 69.5742L47.5469 66.5906C47.9914 66.1463 48.1025 65.4669 47.8205 64.9045L46.3786 62.0334C48.4844 60.4569 51.0945 58.2452 53.4368 56.2599C54.0836 55.713 54.7133 55.179 55.3088 54.6776L65.3362 66.5009C65.6098 66.8214 66.003 67.0079 66.4219 67.0165C66.9576 67.0165 67.2453 66.8498 67.5275 66.5422L68.9523 64.9828C69.9777 63.9617 70.3054 62.4279 69.6899 60.8799Z" fill="#F96B31"/>
<path d="M46.4268 20.908C46.1476 21.2213 46.0194 21.6386 46.0706 22.053C46.4354 25.0253 46.6349 28.1569 46.6633 31.3627C46.6691 31.8825 46.9482 32.3597 47.3985 32.6174L53.2199 35.9342C53.4451 36.0609 53.6959 36.125 53.9437 36.125C54.2258 36.125 54.508 36.0438 54.753 35.8816C57.5084 34.0487 60.4234 32.9563 62.7514 32.8866C63.5522 32.8609 64.1819 32.1959 64.1648 31.3955C64.0878 27.9804 63.4723 24.6137 62.3298 21.388C62.1218 20.8056 61.5718 20.4167 60.9534 20.4167H47.5181C47.0993 20.4166 46.7032 20.5961 46.4268 20.908Z" fill="#F9893D"/>
<path d="M34.9998 31.0877C36.7066 29.3801 39.066 28.6438 41.7189 29.5268C42.1748 29.6777 42.6792 29.5938 43.0611 29.3046C43.4458 29.0141 43.6623 28.5526 43.6366 28.0728C43.5199 25.6047 43.346 23.5155 43.1066 21.6854C43.0096 20.959 42.3914 20.4165 41.659 20.4165H22.5334C21.8012 20.4165 21.1828 20.9591 21.0858 21.6854C20.647 25.0463 20.4248 28.5442 20.4248 32.0831C20.4248 35.6221 20.6471 39.1199 21.0858 42.4809C21.1828 43.2072 21.801 43.7497 22.5334 43.7497H35.2763C35.8889 43.7497 36.4361 43.368 36.6469 42.7927C36.8577 42.2174 36.6868 41.5722 36.2166 41.1777L33.7206 39.0699V39.0685C32.786 38.281 32.2217 37.1287 32.1733 35.9069C32.122 34.6864 32.5894 33.4915 33.4556 32.6285L34.9998 31.0877Z" fill="#F9893D"/>
<path d="M33.4531 52.5183C34.7041 51.2721 36.6588 50.899 38.2716 51.5941C38.8757 51.8533 39.5681 51.6809 39.9784 51.1797C40.4914 50.5545 41.0242 49.9222 41.7365 49.079C41.8961 48.8868 42.0043 48.6589 42.0527 48.4154C42.0698 48.32 42.0812 48.2203 42.0812 48.1249C42.0812 47.3188 41.4286 46.6665 40.6222 46.6665H23.5711C23.1266 46.6665 22.7077 46.8687 22.4313 47.2147C22.1548 47.5623 22.0494 48.0166 22.1492 48.4495C23.2121 53.1036 24.7194 57.0627 26.5146 59.8983C26.7882 60.3298 27.2584 60.5761 27.7485 60.5761C27.9052 60.5761 28.062 60.5504 28.2158 60.4992C28.8542 60.2827 29.2616 59.6589 29.2017 58.9881C29.0848 57.6879 29.5465 56.4161 30.464 55.5004L33.4531 52.5183Z" fill="#F9893D"/>
</g>
<defs>
<clipPath id="clip0_1_13012">
<rect width="70" height="70" fill="white"/>
</clipPath>
</defs>
</svg>
