<svg width="84" height="84" viewBox="0 0 84 84" fill="none" xmlns="http://www.w3.org/2000/svg">
<circle cx="42" cy="42" r="42" fill="#1A1A1A"/>
<g clip-path="url(#clip0_1_12985)">
<path d="M68.8184 32.9294V65.7419H15.498V32.9294C15.498 31.8416 15.9302 30.7984 16.6994 30.0292C17.4686 29.26 18.5118 28.8279 19.5996 28.8279H64.7168C65.8046 28.8279 66.8478 29.26 67.617 30.0292C68.3862 30.7984 68.8184 31.8416 68.8184 32.9294Z" fill="#8585F2"/>
<path d="M67.793 57.5388H49.3359C48.7553 57.5383 48.1817 57.4124 47.6543 57.1697C47.9765 57.8902 48.5004 58.5021 49.1627 58.9315C49.825 59.3609 50.5974 59.5895 51.3867 59.5896H68.8184V57.4055C68.4844 57.4971 68.1393 57.5419 67.793 57.5388Z" fill="#1E81CE"/>
<path d="M68.8184 65.7419H12.4219V69.8435C12.4235 70.3869 12.6401 70.9076 13.0243 71.2918C13.4086 71.6761 13.9293 71.8927 14.4727 71.8943H69.8438C70.3872 71.8927 70.9078 71.6761 71.2921 71.2918C71.6763 70.9076 71.8929 70.3869 71.8945 69.8435V65.7419H68.8184Z" fill="#58595B"/>
<path d="M71.8945 16.5232V53.4373C71.8904 54.3451 71.5866 55.2262 71.0303 55.9438C70.4741 56.6613 69.6965 57.1752 68.8184 57.4055C68.4844 57.4971 68.1393 57.542 67.793 57.5388H49.3359C48.2481 57.5388 47.2049 57.1067 46.4357 56.3375C45.6665 55.5683 45.2344 54.5251 45.2344 53.4373V16.5232C45.2376 15.4364 45.6708 14.395 46.4393 13.6265C47.2078 12.858 48.2491 12.4249 49.3359 12.4216H67.793C68.8808 12.4216 69.924 12.8538 70.6932 13.623C71.4624 14.3921 71.8945 15.4354 71.8945 16.5232Z" fill="#F9893D"/>
<path d="M64.7168 12.4216V15.4978C64.7168 15.7698 64.6088 16.0306 64.4165 16.2229C64.2242 16.4152 63.9634 16.5232 63.6914 16.5232H53.4375C53.1655 16.5232 52.9047 16.4152 52.7124 16.2229C52.5201 16.0306 52.4121 15.7698 52.4121 15.4978V12.4216H64.7168Z" fill="#FF9811"/>
<path d="M47.2852 65.7419V67.7927C47.2852 68.0647 47.1771 68.3255 46.9848 68.5178C46.7925 68.7101 46.5317 68.8181 46.2598 68.8181H38.0566C37.7847 68.8181 37.5239 68.7101 37.3316 68.5178C37.1393 68.3255 37.0312 68.0647 37.0312 67.7927V65.7419H47.2852Z" fill="#F1F2F2"/>
<path d="M42.1582 42.158L40.3945 52.7502C40.3134 53.2279 40.0663 53.6615 39.6967 53.9748C39.3272 54.288 38.859 54.4608 38.3745 54.4626H27.4849C27.0004 54.4608 26.5322 54.288 26.1626 53.9748C25.7931 53.6615 25.546 53.2279 25.4648 52.7502L25.4033 52.4119H36.3237C36.8082 52.41 37.2764 52.2372 37.646 51.924C38.0155 51.6107 38.2626 51.1771 38.3438 50.6995L39.769 42.158H42.1582Z" fill="#1E81CE"/>
<path d="M62.666 36.0056L60.6152 34.9802V33.4011C61.2395 33.0431 61.7581 32.5263 62.1182 31.9033C62.4784 31.2802 62.6674 30.5729 62.666 29.8533V27.8025L63.6914 25.7517V24.7263C64.2348 24.7279 64.7555 24.9445 65.1397 25.3288C65.524 25.713 65.7406 26.2337 65.7422 26.7771V27.8025L64.7168 29.8533V31.9041C64.7181 32.6237 64.5292 33.331 64.169 33.954C63.8088 34.5771 63.2903 35.0939 62.666 35.4519V36.0056Z" fill="#F96B31"/>
<path d="M68.8184 42.6399V47.2849H50.3613V45.2341H66.7676V40.5891C66.7664 40.0009 66.6369 39.42 66.3882 38.887L66.5522 38.969C67.2322 39.3119 67.8039 39.8364 68.2039 40.4843C68.6039 41.1323 68.8166 41.8784 68.8184 42.6399Z" fill="#F96B31"/>
<path d="M40.1074 40.1072L38.3438 50.6995C38.2626 51.1771 38.0155 51.6107 37.646 51.924C37.2764 52.2372 36.8082 52.41 36.3237 52.4119H25.4341C24.9496 52.41 24.4814 52.2372 24.1119 51.924C23.7423 51.6107 23.4952 51.1771 23.4141 50.6995L21.6504 40.1072H40.1074Z" fill="#FF9811"/>
<path d="M66.7676 40.5891V45.2341H50.3613V40.5891C50.3631 39.8276 50.5758 39.0815 50.9758 38.4335C51.3758 37.7856 51.9475 37.2611 52.6274 36.9182L56.5137 34.9802C56.5137 35.5241 56.7297 36.0457 57.1143 36.4303C57.4989 36.8149 58.0206 37.031 58.5645 37.031C59.1084 37.031 59.63 36.8149 60.0146 36.4303C60.3992 36.0457 60.6152 35.5241 60.6152 34.9802L64.5015 36.9182C65.1814 37.2611 65.7531 37.7856 66.1531 38.4335C66.5531 39.0815 66.7658 39.8276 66.7676 40.5891Z" fill="#D6B88D"/>
<path d="M60.6152 32.9294V34.9802C60.6152 35.5241 60.3992 36.0457 60.0146 36.4303C59.63 36.8149 59.1084 37.031 58.5645 37.031C58.0206 37.031 57.4989 36.8149 57.1143 36.4303C56.7297 36.0457 56.5137 35.5241 56.5137 34.9802V32.9294H60.6152Z" fill="#FFC477"/>
<path d="M60.6152 32.9294V34.4265C59.9926 34.7891 59.285 34.9802 58.5645 34.9802C57.8439 34.9802 57.1363 34.7891 56.5137 34.4265V32.9294H60.6152Z" fill="#FFB655"/>
<path d="M63.6914 24.7263V25.7517L62.666 27.8025L59.5898 25.7517L57.5391 27.8025H54.4629L53.4375 26.7771V24.7263L52.4121 22.6755H61.6406C62.184 22.6772 62.7047 22.8937 63.089 23.278C63.4732 23.6622 63.6898 24.1829 63.6914 24.7263Z" fill="#57565C"/>
<path d="M59.5898 25.7517L57.5391 27.8025H54.4629V29.8533C54.4629 30.9411 54.895 31.9843 55.6642 32.7535C56.4334 33.5227 57.4767 33.9548 58.5645 33.9548C59.6523 33.9548 60.6955 33.5227 61.4647 32.7535C62.2339 31.9843 62.666 30.9411 62.666 29.8533V27.8025L59.5898 25.7517Z" fill="#FFC477"/>
<path d="M29.8535 43.1833H31.9043V49.3357H29.8535V43.1833Z" fill="#EE8700"/>
<path d="M33.9551 43.1833H36.0059V49.3357H33.9551V43.1833Z" fill="#EE8700"/>
<path d="M25.752 43.1833H27.8027V49.3357H25.752V43.1833Z" fill="#EE8700"/>
<path d="M25.8895 35.8197C25.7966 35.2613 25.2686 34.884 24.7103 34.9769C24.1519 35.0697 23.7745 35.5977 23.8674 36.1561L24.554 40.2841C24.6469 40.8425 25.1748 41.2199 25.7332 41.127C26.2916 41.0341 26.6689 40.5062 26.5761 39.9478L25.8895 35.8197Z" fill="#EE8700"/>
<path d="M35.8541 35.8453L35.1633 39.9733C35.0699 40.5317 35.4468 41.0601 36.0052 41.1536C36.5636 41.247 37.092 40.8701 37.1854 40.3117L37.8762 36.1837C37.9696 35.6253 37.5927 35.0969 37.0344 35.0034C36.476 34.91 35.9476 35.2869 35.8541 35.8453Z" fill="#EE8700"/>
<path d="M23.7012 55.488H27.8027V57.5388H23.7012V55.488Z" fill="#FF842C"/>
<path d="M29.8535 55.488H38.0566V57.5388H29.8535V55.488Z" fill="#FF842C"/>
<path d="M23.7012 59.5896H38.0566V61.6404H23.7012V59.5896Z" fill="#FF842C"/>
<path d="M48.3105 44.2087H68.8184V46.2595H48.3105V44.2087Z" fill="#1E81CE"/>
</g>
<defs>
<clipPath id="clip0_1_12985">
<rect width="60" height="60" fill="white" transform="translate(12.1582 12.158)"/>
</clipPath>
</defs>
</svg>
