<svg width="68" height="68" viewBox="0 0 68 68" fill="none" xmlns="http://www.w3.org/2000/svg">
<path d="M64.4725 47.6423C63.9921 46.4712 63.0668 45.5384 61.8997 45.0484C60.7325 44.5584 59.4187 44.5513 58.2463 45.0286L44.7206 49.7886C44.83 49.1371 44.7964 48.4697 44.6223 47.8325C44.4481 47.1953 44.1376 46.6036 43.7121 46.0983C43.2867 45.593 42.7565 45.1862 42.1582 44.9061C41.56 44.626 40.9081 44.4793 40.2475 44.4761H32.5975C32.2005 44.4768 31.8097 44.3781 31.4606 44.1892L24.1294 40.3111C23.4734 39.9688 22.7443 39.7902 22.0044 39.7905H12.5481V35.9761C12.5481 35.6943 12.4362 35.424 12.2369 35.2248C12.0377 35.0255 11.7674 34.9136 11.4856 34.9136H4.25C3.96821 34.9136 3.69796 35.0255 3.4987 35.2248C3.29944 35.424 3.1875 35.6943 3.1875 35.9761V62.0073C3.1875 62.2891 3.29944 62.5594 3.4987 62.7586C3.69796 62.9579 3.96821 63.0698 4.25 63.0698H11.4856C11.7674 63.0698 12.0377 62.9579 12.2369 62.7586C12.4362 62.5594 12.5481 62.2891 12.5481 62.0073V59.5742C15.5019 59.4467 18.6681 59.6592 21.2819 61.1573L30.1219 63.7498C31.4027 64.4122 32.8237 64.7579 34.2656 64.7579C35.7076 64.7579 37.1286 64.4122 38.4094 63.7498L62.2413 53.5604C63.275 53.0201 64.0738 52.1183 64.4853 51.0268C64.8968 49.9354 64.8922 48.7306 64.4725 47.6423ZM10.4231 60.9448H5.3125V37.0386H10.4231V60.9448Z" fill="#F96B31"/>
<path d="M36.7098 12.803C36.8147 13.2748 37.0146 13.7204 37.2973 14.1124C37.58 14.5045 37.9396 14.8349 38.3542 15.0834C38.7687 15.332 39.2296 15.4935 39.7086 15.5581C40.1877 15.6227 40.6748 15.589 41.1404 15.4592C41.6292 15.8635 42.2223 16.1216 42.8513 16.2037C43.4804 16.2857 44.1198 16.1885 44.696 15.9232C45.2722 15.6578 45.7617 15.2352 46.1083 14.7038C46.4548 14.1725 46.6443 13.5541 46.6548 12.9198C46.6556 12.435 46.5504 11.9558 46.3465 11.5159C46.1426 11.076 45.845 10.686 45.4745 10.3732C45.1041 10.0604 44.6697 9.83243 44.2018 9.70521C43.7339 9.57798 43.2439 9.5546 42.7661 9.6367C42.3462 9.18489 41.8149 8.85145 41.2254 8.66983C41.2016 7.89742 40.9567 7.14806 40.5197 6.51073C40.0826 5.87341 39.4719 5.37489 38.7599 5.07438C38.048 4.77387 37.2647 4.68399 36.5032 4.81541C35.7417 4.94683 35.0339 5.29404 34.4638 5.8158C33.8938 6.33756 33.4854 7.01195 33.2873 7.7589C33.0892 8.50584 33.1096 9.29396 33.346 10.0297C33.5825 10.7654 34.0252 11.4177 34.6214 11.9093C35.2177 12.4009 35.9425 12.7111 36.7098 12.803ZM37.1879 6.88483C37.4764 6.88605 37.7609 6.95179 38.0206 7.07722C38.2804 7.20264 38.5088 7.38459 38.6891 7.60973C38.8694 7.83486 38.997 8.09748 39.0627 8.37835C39.1284 8.65922 39.1304 8.95121 39.0686 9.23295C39.0149 9.39674 39.0019 9.57112 39.0307 9.74104C39.0595 9.91097 39.1292 10.0713 39.2337 10.2083C39.3383 10.3453 39.4746 10.4548 39.631 10.5274C39.7873 10.5999 39.9589 10.6334 40.1311 10.6248C40.3909 10.6231 40.6466 10.69 40.8723 10.8187C41.0981 10.9475 41.2858 11.1335 41.4167 11.358C41.5474 11.5956 41.7641 11.7743 42.0223 11.8573C42.4686 12.038 42.8404 11.698 43.2973 11.698C43.5077 11.6982 43.7145 11.7528 43.8977 11.8564C44.0808 11.9601 44.2341 12.1092 44.3427 12.2895C44.4512 12.4698 44.5114 12.675 44.5173 12.8854C44.5232 13.0957 44.4747 13.304 44.3765 13.4901C44.2783 13.6763 44.1337 13.8338 43.9567 13.9476C43.7797 14.0614 43.5763 14.1276 43.3662 14.1397C43.1561 14.1518 42.9464 14.1094 42.7575 14.0167C42.5686 13.924 42.4069 13.784 42.2879 13.6105C42.126 13.4047 41.9027 13.2558 41.6504 13.1855C41.1192 13.0473 40.6836 13.5042 40.1629 13.4723C39.9464 13.4662 39.7338 13.4125 39.5404 13.3151C39.3469 13.2176 39.1772 13.0788 39.0434 12.9085C38.9096 12.7382 38.8148 12.5405 38.7659 12.3294C38.717 12.1184 38.7151 11.8992 38.7604 11.6873C38.7629 11.4877 38.7055 11.292 38.5957 11.1253C38.4858 10.9587 38.3286 10.8288 38.1442 10.7523C37.8467 10.5823 37.5173 10.6886 37.1879 10.6886C36.7324 10.6203 36.3165 10.3908 36.0159 10.0417C35.7152 9.69269 35.5499 9.24735 35.5499 8.78671C35.5499 8.32606 35.7152 7.88072 36.0159 7.53169C36.3165 7.18266 36.7324 6.95312 37.1879 6.88483Z" fill="#F9893D"/>
<path d="M28.6875 40.6405H63.75C64.0318 40.6405 64.302 40.5286 64.5013 40.3293C64.7006 40.1301 64.8125 39.8598 64.8125 39.578C64.8125 39.2962 64.7006 39.026 64.5013 38.8267C64.302 38.6274 64.0318 38.5155 63.75 38.5155H62.4431L60.0419 16.0968C60.0154 15.8338 59.8919 15.5901 59.6955 15.4132C59.499 15.2364 59.2437 15.1392 58.9794 15.1405H57.5344C58.3773 14.8792 59.0896 14.3078 59.5277 13.5418C59.9658 12.7757 60.0969 11.872 59.8946 11.013C59.6923 10.154 59.1717 9.40378 58.4379 8.91368C57.704 8.42358 56.8116 8.23013 55.9406 8.37239C55.4928 7.87165 54.9156 7.50402 54.2725 7.30989C54.2682 6.48886 54.0261 5.68666 53.5756 5.00026C53.1251 4.31386 52.4854 3.77264 51.7339 3.44204C50.9823 3.11144 50.1511 3.00561 49.3407 3.13733C48.5303 3.26906 47.7754 3.6327 47.1673 4.1843C46.5591 4.73591 46.1238 5.45186 45.9138 6.24561C45.7039 7.03936 45.7284 7.87692 45.9843 8.65706C46.2402 9.43719 46.7167 10.1265 47.356 10.6416C47.9953 11.1568 48.7702 11.4757 49.5869 11.5599C49.6913 12.0618 49.8981 12.5367 50.1944 12.9551C50.4906 13.3735 50.8699 13.7263 51.3086 13.9916C51.7473 14.2568 52.236 14.4287 52.7441 14.4966C53.2523 14.5645 53.7689 14.5269 54.2619 14.3861C54.6398 14.7061 55.0818 14.9416 55.5581 15.0768C54.8463 15.013 54.0919 15.1936 53.9856 16.0224L52.8275 25.8293L51.4887 19.8899C51.4348 19.6502 51.2994 19.4366 51.1057 19.2855C50.912 19.1344 50.6719 19.0551 50.4262 19.0611H41.9262C41.6806 19.0551 41.4405 19.1344 41.2468 19.2855C41.0531 19.4366 40.9177 19.6502 40.8637 19.8899L39.6312 25.893L38.4731 16.0861C38.4442 15.8251 38.3197 15.5839 38.1234 15.4093C37.9272 15.2347 37.6733 15.1389 37.4106 15.1405H33.4794C33.2151 15.1392 32.9597 15.2364 32.7633 15.4132C32.5668 15.5901 32.4433 15.8338 32.4169 16.0968L30.0156 38.5155H28.6875C28.4057 38.5155 28.1355 38.6274 27.9362 38.8267C27.7369 39.026 27.625 39.2962 27.625 39.578C27.625 39.8598 27.7369 40.1301 27.9362 40.3293C28.1355 40.5286 28.4057 40.6405 28.6875 40.6405ZM55.4094 12.5799C55.2884 12.4178 55.1256 12.2916 54.9385 12.2149C54.7513 12.1381 54.5468 12.1137 54.3469 12.1443C53.9893 12.3177 53.6049 12.4291 53.21 12.4736C53.0021 12.4736 52.7962 12.4327 52.6042 12.3531C52.4121 12.2736 52.2376 12.157 52.0906 12.0099C51.9436 11.8629 51.8269 11.6884 51.7474 11.4963C51.6678 11.3043 51.6269 11.0984 51.6269 10.8905C51.6856 10.6066 51.6336 10.3109 51.4815 10.064C51.3294 9.81712 51.0888 9.63768 50.8088 9.56239C50.5542 9.5413 50.2983 9.5413 50.0437 9.56239C49.6008 9.57321 49.1656 9.44533 48.799 9.19664C48.4324 8.94795 48.1526 8.59088 47.9989 8.17538C47.8451 7.75987 47.8251 7.30671 47.9416 6.87927C48.0581 6.45183 48.3053 6.07148 48.6486 5.79143C48.9919 5.51138 49.4141 5.34563 49.8562 5.31735C50.2984 5.28908 50.7383 5.3997 51.1144 5.63374C51.4906 5.86778 51.7842 6.21355 51.9542 6.62267C52.1242 7.03179 52.1621 7.48381 52.0625 7.91551C52.0061 8.08474 51.9932 8.26544 52.025 8.44096C52.0568 8.61648 52.1323 8.78116 52.2445 8.91983C52.3567 9.0585 52.502 9.16669 52.667 9.23442C52.8321 9.30215 53.0115 9.32724 53.1888 9.30739C53.4713 9.30749 53.7488 9.38222 53.9932 9.52402C54.2377 9.66581 54.4403 9.86964 54.5806 10.1149C54.6516 10.241 54.7476 10.3513 54.8627 10.439C54.9778 10.5267 55.1096 10.5899 55.25 10.6249C55.7069 10.8268 56.1425 10.4549 56.5994 10.4655C56.8368 10.4642 57.0706 10.5246 57.2777 10.6409C57.4847 10.7571 57.6581 10.9251 57.7807 11.1285C57.9033 11.3319 57.9709 11.5636 57.977 11.801C57.9831 12.0384 57.9274 12.2733 57.8154 12.4827C57.7033 12.6921 57.5388 12.8688 57.338 12.9954C57.1371 13.1221 56.9068 13.1944 56.6696 13.2053C56.4324 13.2162 56.1964 13.1652 55.9848 13.0575C55.7732 12.9497 55.5932 12.7888 55.4625 12.5905L55.4094 12.5799ZM42.8612 21.2499H49.6081L53.5075 38.5155H38.9619L42.8612 21.2499Z" fill="#F9893D"/>
</svg>
