<svg width="68" height="58" viewBox="0 0 68 58" fill="none" xmlns="http://www.w3.org/2000/svg">
<path d="M1.12109 54.0198H11.462V19.4441H1.12109V54.0198ZM4.31352 23.6971H8.26958V34.7486H4.31352V23.6971ZM4.31352 38.7047H8.26958V49.7562H4.31352V38.7047Z" fill="#F9893D"/>
<path d="M8.84277 0.777344H48.7322V6.21825H8.84277V0.777344Z" fill="#F9893D"/>
<path d="M51.4573 16.3469C42.9513 16.3469 36.0361 23.2621 36.0361 31.7681C36.0361 40.2742 51.4573 57.2227 51.4573 57.2227C51.4573 57.2227 66.8786 40.2742 66.8786 31.7681C66.8786 23.2621 59.9634 16.3469 51.4573 16.3469ZM51.4573 40.5394C46.6104 40.5394 42.6861 36.6151 42.6861 31.7681C42.6861 26.9212 46.6104 22.9969 51.4573 22.9969C56.3043 22.9969 60.2286 26.9212 60.2286 31.7681C60.2286 36.6151 56.3043 40.5394 51.4573 40.5394Z" fill="#F96B31"/>
<path d="M54.024 26.7515C53.4407 26.7515 52.9634 27.2287 52.9634 27.8121V30.7075H49.9513V27.8121C49.9513 27.2287 49.474 26.7515 48.8907 26.7515C48.3074 26.7515 47.8301 27.2287 47.8301 27.8121V35.7242C47.8301 36.3075 48.3074 36.7848 48.8907 36.7848C49.474 36.7848 49.9513 36.3075 49.9513 35.7242V32.8287H52.9634V35.7242C52.9634 36.3075 53.4407 36.7848 54.024 36.7848C54.6074 36.7848 55.0846 36.3075 55.0846 35.7242V27.8121C55.0846 27.2181 54.6074 26.7515 54.024 26.7515Z" fill="#F9893D"/>
<path d="M22.6094 44.4001H27.7321V54.0198H22.6094V44.4001Z" fill="#F9893D"/>
<path d="M29.8525 44.4001H34.9753V54.0198H29.8525V44.4001Z" fill="#F9893D"/>
<path d="M30.9134 38.3545V32.9666H33.9998C33.9362 32.553 33.915 32.15 33.915 31.7681C33.915 30.7181 34.0104 29.7 34.1907 28.703H30.9134V23.3151H36.0892C36.9695 21.7242 38.0831 20.2818 39.3983 19.0515H30.9134V13.6636H39.7271V18.7439C40.9998 17.5984 42.4316 16.6333 43.9907 15.9015V8.33936H13.5938V54.0197H20.4877V43.3394C20.4877 42.756 20.9544 42.2788 21.5483 42.2788H36.0362C36.6195 42.2788 37.0968 42.756 37.0968 43.3394V54.0197H43.9907V51.5803C40.9998 47.7091 37.6165 42.8303 35.6331 38.3545H30.9134ZM26.6604 38.3545H17.8468V32.9666H26.6604V38.3545ZM26.6604 28.703H17.8468V23.3151H26.6604V28.703ZM26.6604 19.0515H17.8468V13.6636H26.6604V19.0515Z" fill="#F9893D"/>
<path d="M39.7272 19.0515V18.7439C39.6212 18.8394 39.5045 18.9348 39.3984 19.0515H39.7272Z" fill="#F9893D"/>
</svg>
