<svg width="62" height="70" viewBox="0 0 62 70" fill="none" xmlns="http://www.w3.org/2000/svg">
<path d="M19.9122 41.4053C21.5591 41.4053 23.3718 41.566 25.0267 41.87V36.9128H37.0836V45.7602C38.5021 46.281 39.5378 46.8427 40.5101 47.5491C42.3534 48.8881 43.3664 50.6458 43.4272 52.5737C45.7736 52.0194 47.9256 51.0794 49.7878 49.799C50.4606 49.3366 51.2682 48.9318 51.741 48.5846V34.8153L30.9991 11.6384L9.89648 34.9551V43.2878C11.3149 42.9282 12.6076 42.5417 14.106 42.1332C15.8781 41.6502 17.8448 41.4053 19.9122 41.4053Z" fill="#F9893D"/>
<path d="M31.0934 5.98424L54.5414 32.1846H59.8893L31.0463 0L19.1164 13.1378V7.83438H10.3692V22.8027L1.95703 32.1846H7.38098L31.0934 5.98424Z" fill="#F9893D"/>
<path d="M57.2495 50.8117C55.9507 50.8117 54.2022 51.3885 51.9801 52.916C47.9182 55.7082 42.9457 56.9378 38.4024 56.9378C34.709 56.9378 31.2995 56.1257 28.8917 54.681C27.6987 53.9652 27.7023 53.7261 28.3942 53.7261C29.7839 53.7261 33.9508 54.6905 36.7747 54.6905C38.1644 54.6905 39.2284 54.4571 39.4774 53.7604C40.628 50.5386 36.1674 49.5013 31.5033 47.6138C28.0886 46.2312 23.9209 45.1877 19.9521 45.1875C18.2974 45.1875 16.6626 45.3688 15.1454 45.7825C8.25615 47.6608 3.27783 49.0757 1.85938 49.5351V67.6157C4.69629 66.5724 7.98239 65.5726 9.85239 65.5726C13.2841 65.5726 27.1701 69.9997 35.0324 69.9997C36.1336 69.9997 37.1197 69.9129 37.9398 69.715C44.6129 68.1041 56.1982 58.6688 59.3427 55.4474C60.8524 53.9009 60.2552 50.8117 57.2495 50.8117Z" fill="#F96B31"/>
</svg>
