<svg width="70" height="70" viewBox="0 0 70 70" fill="none" xmlns="http://www.w3.org/2000/svg">
<g clip-path="url(#clip0_1_12986)">
<path d="M41.1748 14.6016H52.2352L48.9187 7.30078L52.2352 0H41.1748V14.6016Z" fill="#F9893D"/>
<path d="M37.0508 16.7493V0H32.9492V16.7493C33.6263 16.6808 34.3104 16.6455 35.0001 16.6455C35.6896 16.6455 36.3737 16.6808 37.0508 16.7493Z" fill="#F9893D"/>
<path d="M55.0068 55.6388H61.7915C62.7656 55.6388 63.7134 55.7531 64.6228 55.9678V35.228H55.0146L55.0068 55.6388Z" fill="#F9893D"/>
<path d="M8.2091 55.6389H14.9938L15.0441 35.228H5.37793V55.968C6.28725 55.7532 7.23498 55.6389 8.2091 55.6389Z" fill="#F9893D"/>
<path d="M50.8407 35.228C50.1204 27.1112 43.304 20.7471 35 20.7471C26.6959 20.7471 19.8796 27.1112 19.1592 35.228H50.8407Z" fill="#F9893D"/>
<path d="M30.4717 39.3296H39.5292V55.6389H30.4717V39.3296Z" fill="#F9893D"/>
<path d="M43.6309 39.3296H50.9055V55.6389H43.6309V39.3296Z" fill="#F9893D"/>
<path d="M19.0947 39.3296H26.3694V55.6389H19.0947V39.3296Z" fill="#F9893D"/>
<path d="M61.7911 59.7402H8.20887C3.68238 59.7402 0 63.4228 0 67.9491V69.9999H70V67.9491C70 63.4228 66.3175 59.7402 61.7911 59.7402Z" fill="#58595B"/>
</g>
<defs>
<clipPath id="clip0_1_12986">
<rect width="70" height="70" fill="white"/>
</clipPath>
</defs>
</svg>
