<svg width="70" height="70" viewBox="0 0 70 70" fill="none" xmlns="http://www.w3.org/2000/svg">
<g clip-path="url(#clip0_1_13010)">
<path d="M30.7932 55.0889C45.7002 55.0889 57.7847 43.0044 57.7847 28.0974C57.7847 13.1904 45.7002 1.10596 30.7932 1.10596C15.8862 1.10596 3.80176 13.1904 3.80176 28.0974C3.80176 43.0044 15.8862 55.0889 30.7932 55.0889Z" fill="#F9893D"/>
<path d="M39.5297 2.55225C44.3453 16.67 36.8044 32.0184 22.6866 36.8339C17.0337 38.7622 10.901 38.7622 5.24805 36.8339C10.0752 50.94 25.4236 58.4619 39.5297 53.6349C53.6358 48.8078 61.1577 33.4591 56.3305 19.3532C53.6284 11.4568 47.4259 5.25439 39.5297 2.55225Z" fill="#F9893D"/>
<path d="M67.9293 48.3684C68.4499 46.8779 68.8498 45.348 69.1248 43.7933C69.3437 42.5353 68.8171 41.2641 67.7729 40.5294C66.4788 39.6243 65.1139 38.8251 63.6914 38.1392L64.6804 43.2538L67.9293 48.3684Z" fill="#B56959"/>
<path d="M28.2004 66.9545C25.8755 66.0607 23.6736 64.8748 21.6479 63.4253C20.6344 62.6937 20.1204 61.4527 20.3197 60.2186C20.7262 57.7676 21.442 55.378 22.4498 53.1072L26.7352 60.0308L28.2004 66.9545Z" fill="#A85B4A"/>
<path d="M32.784 68.3074C37.6557 69.3181 43.7166 69.2541 50.5849 66.4093C58.5937 63.0919 63.1957 57.8589 65.8373 53.0676L63.6908 43.9611L58.8967 36.2977C53.6402 34.7761 46.6833 34.3281 38.6711 37.6468C31.8025 40.492 27.4713 44.7329 24.7412 48.8926L27.6167 59.0601L32.784 68.3074Z" fill="#B56959"/>
<path d="M51.5673 63.1567C40.0941 63.1565 30.7202 53.9956 30.4563 42.5254C28.2421 44.3484 26.3153 46.4949 24.7412 48.8925L27.6167 59.0599L32.7841 68.3071C37.6559 69.3178 43.7168 69.2539 50.585 66.409C53.2441 65.322 55.7482 63.889 58.0324 62.147C55.943 62.8178 53.7618 63.1584 51.5673 63.1567Z" fill="#A85B4A"/>
<path d="M58.8896 36.2969L65.8363 53.0676C66.6654 51.5626 67.3655 49.99 67.9293 48.3667L63.6937 38.1409C62.1473 37.3918 60.5402 36.775 58.8896 36.2969Z" fill="#F2F2FF"/>
<path d="M28.1809 66.9463C29.6754 67.5249 31.215 67.9796 32.7841 68.3058L24.7429 48.8926C23.864 50.2327 23.0968 51.6428 22.4492 53.1088L28.1809 66.9463Z" fill="#CCCCF0"/>
<path d="M12.3947 65.7814C18.7823 65.7814 23.9604 60.6033 23.9604 54.2158C23.9604 47.8283 18.7823 42.6501 12.3947 42.6501C6.00722 42.6501 0.829102 47.8283 0.829102 54.2158C0.829102 60.6033 6.00722 65.7814 12.3947 65.7814Z" fill="#F2F2FF"/>
<path d="M17.6026 43.886C16.5746 52.0002 9.71564 58.1107 1.53711 58.1984C3.73824 64.1949 10.3836 67.2716 16.3801 65.0705C22.3766 62.8694 25.4533 56.224 23.2522 50.2275C22.2413 47.4738 20.2217 45.2069 17.6026 43.886Z" fill="#E6E6FF"/>
<path d="M68.249 39.8521C66.9185 38.9207 65.5148 38.0986 64.0518 37.3937C62.4711 36.6287 60.8289 35.9979 59.1425 35.5081C59.1372 35.5064 59.1326 35.5035 59.1271 35.5019C58.657 35.3658 58.1861 35.2417 57.7144 35.1296C58.3119 32.8333 58.6138 30.4701 58.613 28.0973C58.613 12.7575 46.1332 0.277588 30.7933 0.277588C15.4534 0.277588 2.97358 12.7576 2.97358 28.0974C2.96404 33.3488 4.44917 38.4945 7.25563 42.9332C6.34042 43.3524 5.47943 43.8807 4.6912 44.5069C-0.671071 48.7611 -1.56918 56.5568 2.68503 61.9189C6.93925 67.2811 14.7349 68.1793 20.0971 63.9251C20.2505 63.8034 20.4009 63.6782 20.5483 63.5495C21.0485 64.091 33.5254 74.3722 50.9021 67.1742C57.8708 64.2879 63.1399 59.6762 66.5628 53.4675L66.5616 53.4669C67.4126 51.9214 68.1315 50.3066 68.7106 48.6401C69.2466 47.1075 69.6579 45.5341 69.9405 43.9353C70.2099 42.362 69.5521 40.7738 68.249 39.8521ZM68.3085 43.6512C68.1779 44.4008 68.0113 45.1586 67.8111 45.9186L65.341 39.9552C66.0201 40.3511 66.6737 40.7692 67.2959 41.2069C68.0759 41.7587 68.4698 42.7094 68.3085 43.6512ZM56.0907 34.7878C55.4449 34.67 54.7978 34.5737 54.1494 34.4991C53.9372 24.7148 48.821 18.8486 45.249 14.5536C43.5534 12.5148 42.052 10.7071 41.1755 8.90835C45.3024 9.11671 48.5447 10.3953 51.3522 11.9334C56.4311 18.3855 58.1857 26.8481 56.0907 34.7878ZM41.0553 35.8852C40.8861 29.3449 39.4829 19.4149 32.4383 9.93145C34.6953 9.31671 37.016 8.96627 39.3539 8.88714C40.256 11.138 41.9897 13.2251 43.9756 15.6129C47.7709 20.1763 52.2543 25.5701 52.497 34.3558C48.6209 34.1447 44.7397 34.6635 41.0553 35.8852ZM48.3973 8.75924C45.8889 7.79367 43.2332 7.26642 40.5462 7.20054C40.2864 6.08374 40.2686 4.92413 40.4941 3.7999C43.4038 4.9672 46.0806 6.64691 48.3973 8.75924ZM38.9201 3.22798C38.6214 4.5383 38.5986 5.89659 38.8533 7.21618C36.3035 7.34727 33.7783 7.78015 31.3304 8.50555C29.553 6.2917 27.5354 4.28196 25.3148 2.51305C29.8334 1.54695 34.5275 1.79361 38.9201 3.22798ZM23.2499 3.04441C24.1219 3.65225 26.7404 5.60937 29.617 9.03334C27.9033 9.59823 25.363 10.4241 21.5405 12.9327C18.4028 10.0857 14.8145 9.55635 12.2689 9.63959C15.3269 6.56633 19.1001 4.30012 23.2499 3.04441ZM10.6089 11.4685C12.5772 11.156 16.6665 10.9788 20.1352 13.9041C11.3648 20.2664 7.35768 29.1131 5.72185 35.5922C3.22978 27.239 5.06232 18.1933 10.6089 11.4685ZM6.78828 38.5202C7.52707 34.2742 10.4657 22.84 21.332 15.0848C23.5652 17.7317 22.8752 20.5225 21.777 24.9636C20.5817 29.7973 19.0544 35.9844 20.6115 44.9473C17.4057 42.0996 12.9552 41.112 8.84574 42.3366C8.05512 41.1238 7.36696 39.8472 6.78828 38.5202ZM1.72768 52.9873C2.0031 50.5366 3.11991 48.2573 4.88789 46.5379C5.10685 47.1448 5.29108 47.7637 5.43966 48.3914L4.23114 49.1368C3.28956 49.7179 4.17799 51.1153 5.10075 50.5468L5.78189 50.1266C5.91045 50.9622 5.99263 51.8042 6.02828 52.6489L4.83805 52.5119C3.75028 52.387 3.55928 54.0321 4.64852 54.1574L6.0418 54.3179C6.0137 55.3729 5.92079 56.4252 5.76346 57.4688L4.66999 56.8394C3.72006 56.2917 2.89485 57.7286 3.84346 58.275L5.44682 59.198C5.2268 60.2158 4.98928 61.0545 4.76383 61.7696C2.46621 59.458 1.34808 56.2245 1.72768 52.9873ZM11.166 64.8829C9.34754 64.6769 7.6127 64.0069 6.12769 62.9371C6.37303 62.2056 6.6727 61.2488 6.95263 60.0645L7.64079 60.4607C8.58158 61.0029 9.42614 59.5773 8.46733 59.0251L7.304 58.3554C7.528 57.0845 7.66253 55.7993 7.70667 54.5096L8.94236 54.6519C10.0304 54.7777 10.2214 53.1317 9.1319 53.0064L7.70773 52.8424C7.67088 51.6135 7.54006 50.3892 7.31633 49.1803L8.92102 48.1905C9.85319 47.6154 8.98504 46.2055 8.05141 46.7805L6.92652 47.4743C6.74176 46.776 6.51074 46.0907 6.23505 45.423C10.6849 42.3004 16.7675 43.003 20.3883 47.0578C19.9694 47.6441 19.5899 48.2577 19.2522 48.8943L18.3143 47.9626C17.5367 47.1895 16.3698 48.3661 17.1469 49.1377L18.4857 50.4677C17.9931 51.5939 17.5876 52.756 17.2725 53.9441L15.8469 53.7799C14.7591 53.6532 14.5679 55.3002 15.6574 55.4254L16.896 55.5682C16.6448 56.834 16.483 58.1158 16.4117 59.4044L15.1259 59.7923C14.0729 60.1101 14.5588 61.6943 15.6043 61.3783L16.3649 61.1489C16.3682 62.3691 16.4394 63.3316 16.5154 64.1333C14.8259 64.8373 12.9838 65.0953 11.166 64.8829ZM18.1082 63.306C18.0523 62.5635 18.0132 61.6979 18.0315 60.6457L19.7988 60.1125C20.8498 59.7954 20.3667 58.2101 19.3203 58.5265L18.1177 58.8893C18.2028 57.8381 18.3523 56.7931 18.5656 55.7602L19.9512 55.9198C21.0392 56.0456 21.2302 54.3995 20.1407 54.2743L18.9591 54.1382C19.1859 53.326 19.4569 52.5267 19.7711 51.7441L20.3316 52.3009C21.0991 53.0638 22.2857 51.907 21.499 51.1258L20.4975 50.1308C20.7833 49.555 21.101 48.9955 21.4489 48.4552C24.6341 53.4488 23.168 60.0791 18.1743 63.2642C18.1522 63.2783 18.1302 63.2922 18.1082 63.306ZM21.7208 62.3786C22.6511 61.3212 23.392 60.1111 23.911 58.8017L26.6389 65.3874C24.3105 64.297 22.1481 62.8657 21.7208 62.3786ZM28.8094 66.2991L24.6274 56.2029C24.9056 54.4996 24.8227 52.7568 24.3839 51.0877C24.455 50.9605 24.5247 50.8326 24.5977 50.7063L31.3989 67.126C30.525 66.8921 29.659 66.6156 28.8094 66.2991ZM50.268 65.6439C44.6029 67.9906 38.9233 68.6407 33.3805 67.5809L25.6782 48.9861C26.8015 47.3309 28.1007 45.8022 29.553 44.4267C30.3494 43.6733 29.2101 42.4699 28.4146 43.2234C26.7623 44.7868 25.2972 46.5367 24.0487 48.4383C24.0457 48.4431 24.0441 48.4483 24.0411 48.4532C23.9114 48.6508 23.7841 48.8509 23.6587 49.0535C23.4291 48.5567 23.1669 48.0757 22.874 47.6135C20.5209 37.7151 21.9144 31.308 23.3848 25.3615C24.4738 20.9576 25.3481 17.4119 22.707 14.1529C26.413 11.7654 28.984 10.9653 30.7321 10.4217C37.8506 19.6981 39.2814 29.5684 39.4044 36.4668C37.4619 37.1982 35.5876 38.0992 33.8031 39.1592C32.8519 39.7274 33.7226 41.137 34.6527 40.5811C39.6946 37.5691 48.3532 34.2581 58.2774 36.9852L64.9165 53.0134C61.6757 58.71 56.75 62.9589 50.268 65.6439ZM65.9158 51.0965L60.3396 37.634C61.2595 37.9612 62.1655 38.3347 63.0495 38.7513L67.0422 48.3905C66.7115 49.3099 66.3349 50.2147 65.9158 51.0965Z" fill="black"/>
<path d="M31.5167 42.5176C31.9742 42.5176 32.345 42.1468 32.345 41.6893C32.345 41.2319 31.9742 40.8611 31.5167 40.8611C31.0593 40.8611 30.6885 41.2319 30.6885 41.6893C30.6885 42.1468 31.0593 42.5176 31.5167 42.5176Z" fill="black"/>
<path d="M55.5983 41.0145C53.7903 41.3113 51.9578 41.7095 50.1006 42.2093L49.5575 40.8983C49.1383 39.8867 47.6074 40.5191 48.0271 41.5321L48.4956 42.6634C46.5525 43.2415 44.5952 43.9254 42.6232 44.7151L42.1711 43.6238C41.7516 42.6101 40.2218 43.2463 40.6408 44.2576L41.0927 45.3484C39.1446 46.1816 37.2768 47.0821 35.4895 48.05L35.0211 46.9194C34.6008 45.9048 33.0723 46.5433 33.4908 47.5533L34.0333 48.8629C32.9268 49.5008 31.8588 50.1631 30.829 50.8498C29.9061 51.4654 30.8485 52.8286 31.7482 52.2278C32.6886 51.6006 33.6635 50.9939 34.673 50.4076L35.2956 51.9105C35.7143 52.9216 37.2474 52.2936 36.8259 51.2766L36.1266 49.5884C37.9053 48.6192 39.7719 47.7159 41.7265 46.8789L42.4456 48.6148C42.8643 49.6259 44.3974 48.998 43.9759 47.981L43.257 46.2453C45.2286 45.4555 47.1872 44.7742 49.1327 44.2014L49.8319 45.8893C50.2511 46.9011 51.7833 46.2717 51.3624 45.2555L50.7398 43.7525C52.4694 43.2949 54.1782 42.9271 55.8667 42.6488C56.9473 42.4717 56.6813 40.8376 55.5983 41.0145Z" fill="black"/>
</g>
<defs>
<clipPath id="clip0_1_13010">
<rect width="70" height="70" fill="white"/>
</clipPath>
</defs>
</svg>
