<svg width="70" height="70" viewBox="0 0 70 70" fill="none" xmlns="http://www.w3.org/2000/svg">
<path d="M32.8125 54.6876V65.6251C32.8125 66.8278 31.8277 67.8126 30.625 67.8126H17.5C16.2973 67.8126 15.3125 66.8278 15.3125 65.6251V61.2501L3.74054 49.6781C2.88712 48.8247 2.1875 47.1403 2.1875 45.9376V19.6876C2.1875 17.2811 4.15604 15.3126 6.5625 15.3126C8.96896 15.3126 10.9375 17.2811 10.9375 19.6876V32.0254C10.303 32.3971 9.69101 32.8564 9.1655 33.4033C7.48108 35.0439 6.5625 37.2314 6.5625 39.5716C6.54114 41.9129 7.45972 44.1218 9.10034 45.7624L14.5253 51.2974C15.3563 52.1497 16.7566 52.1497 17.6089 51.2974L19.146 49.7604L12.2278 42.6991C10.4996 40.973 10.4996 38.2151 12.2278 36.5104C13.0812 35.6559 14.1974 35.218 15.3125 35.218C16.4276 35.218 17.5438 35.6559 18.3972 36.5104L29.6519 47.2877C31.3908 48.9518 32.8125 52.2822 32.8125 54.6876ZM40.3491 47.2877L51.6028 36.5104C52.4573 35.6559 53.5724 35.218 54.6875 35.218C55.8026 35.218 56.9177 35.6559 57.7722 36.5104C59.5004 38.2151 59.5004 40.973 57.7722 42.6991L50.8551 49.7604L52.3911 51.2974C53.2434 52.1497 54.6448 52.1497 55.4736 51.2974L60.8997 45.7624C62.5403 44.1218 63.4589 41.9129 63.4375 39.5716C63.4375 37.2314 62.5189 35.0439 60.8356 33.4033C60.3101 32.8564 59.697 32.3971 59.0625 32.0254V19.6876C59.0625 17.2811 61.0321 15.3126 63.4375 15.3126C65.8429 15.3126 67.8125 17.2811 67.8125 19.6876V45.9376C67.8125 47.1403 67.1118 48.8247 66.2595 49.6781L54.6875 61.2501V65.6251C54.6875 66.8278 53.7027 67.8126 52.5 67.8126H39.375C38.1723 67.8126 37.1875 66.8278 37.1875 65.6251V54.6876C37.1875 52.2822 38.6102 48.9518 40.3491 47.2877ZM50.6393 4.52142C48.6911 2.99402 46.2003 2.18652 43.4402 2.18652C40.2402 2.18652 37.1683 3.2728 35 5.07578C32.8317 3.2728 29.7588 2.18652 26.5587 2.18652C23.7976 2.18652 21.3089 2.99402 19.3607 4.52249C13.8513 8.84409 14.7229 16.1329 17.375 21.513C20.2066 27.2573 27.6076 34.9894 33.8742 38.7492C34.2213 38.9575 34.6101 39.0611 35 39.0611C35.3899 39.0611 35.7787 38.9575 36.1258 38.7492C42.3892 34.9915 49.7891 27.2605 52.6239 21.5141C55.2771 16.1329 56.1487 8.84409 50.6393 4.52142ZM41.5625 21.8751H37.1875V26.2501C37.1875 27.4581 36.208 28.4376 35 28.4376C33.792 28.4376 32.8125 27.4581 32.8125 26.2501V21.8751H28.4375C27.2295 21.8751 26.25 20.8956 26.25 19.6876C26.25 18.4796 27.2295 17.5001 28.4375 17.5001H32.8125V13.1251C32.8125 11.9171 33.792 10.9376 35 10.9376C36.208 10.9376 37.1875 11.9171 37.1875 13.1251V17.5001H41.5625C42.7716 17.5001 43.75 18.4796 43.75 19.6876C43.75 20.8956 42.7716 21.8751 41.5625 21.8751Z" fill="#F9893D"/>
</svg>
