<svg width="70" height="70" viewBox="0 0 70 70" fill="none" xmlns="http://www.w3.org/2000/svg">
<path fill-rule="evenodd" clip-rule="evenodd" d="M27.1902 14.8001C25.0595 14.8001 23.991 17.3815 25.497 18.888C25.6302 19.0213 25.7051 19.2021 25.7051 19.3906C25.7051 19.5791 25.6302 19.7598 25.497 19.8932L23.9664 21.4239C23.8331 21.5571 23.6523 21.632 23.4638 21.632C23.2753 21.632 23.0945 21.5571 22.9612 21.4239C21.4546 19.9172 18.8733 20.9864 18.8733 23.1171C18.8733 23.3057 18.7984 23.4865 18.6651 23.6198C18.5318 23.7532 18.351 23.8281 18.1624 23.8281H15.9991C15.8106 23.8281 15.6297 23.7532 15.4964 23.6198C15.3631 23.4865 15.2882 23.3057 15.2882 23.1171C15.2882 20.9843 12.7087 19.9153 11.2003 21.4239C11.067 21.5571 10.8862 21.632 10.6977 21.632C10.5092 21.632 10.3284 21.5571 10.1951 21.4239L8.6651 19.8933C8.53185 19.76 8.457 19.5792 8.457 19.3907C8.457 19.2022 8.53185 19.0214 8.6651 18.8881C10.1717 17.3815 9.1026 14.8002 6.97184 14.8002C6.78328 14.8002 6.60246 14.7253 6.46913 14.592C6.3358 14.4587 6.2609 14.2779 6.2609 14.0893V11.9255C6.2609 11.7369 6.3358 11.5561 6.46913 11.4227C6.60246 11.2894 6.78328 11.2145 6.97184 11.2145C9.1026 11.2145 10.1717 8.63313 8.6651 7.12663C8.53181 6.99331 8.45693 6.81251 8.45693 6.62398C8.45693 6.43546 8.53181 6.25466 8.6651 6.12134L10.1953 4.59145C10.3286 4.45821 10.5093 4.38336 10.6978 4.38336C10.8863 4.38336 11.0671 4.45821 11.2004 4.59145C12.7071 6.0981 15.2883 5.02895 15.2883 2.89819C15.2883 2.70964 15.3632 2.52881 15.4965 2.39548C15.6299 2.26216 15.8107 2.18726 15.9992 2.18726H18.1631C18.3516 2.18726 18.5325 2.26216 18.6658 2.39548C18.7991 2.52881 18.874 2.70964 18.874 2.89819C18.874 5.02895 21.4553 6.0981 22.9619 4.59145C23.0952 4.45821 23.276 4.38336 23.4645 4.38336C23.653 4.38336 23.8338 4.45821 23.9671 4.59145L25.4976 6.12161C25.6309 6.25493 25.7058 6.43574 25.7058 6.62426C25.7058 6.81278 25.6309 6.99358 25.4976 7.1269C23.9911 8.63341 25.0601 11.2148 27.1909 11.2148C27.3794 11.2148 27.5603 11.2897 27.6936 11.423C27.8269 11.5563 27.9018 11.7372 27.9018 11.9257V14.0896C27.9018 14.2781 27.8269 14.459 27.6936 14.5923C27.5603 14.7256 27.3788 14.8001 27.1902 14.8001ZM18.0847 65.6897L13.3444 67.6584C12.8491 67.863 12.2929 67.8632 11.7974 67.6587C11.302 67.4543 10.9077 67.0621 10.7007 66.5677C8.02512 60.1424 5.34944 53.7173 2.67367 47.2925C2.57034 47.0472 2.51662 46.7839 2.51564 46.5177C2.51465 46.2516 2.56642 45.9878 2.66793 45.7418C2.76945 45.4957 2.91872 45.2722 3.1071 45.0842C3.29549 44.8961 3.51927 44.7473 3.76551 44.6462L8.50582 42.6775C9.00113 42.4728 9.55733 42.4727 10.0527 42.6771C10.5482 42.8814 10.9425 43.2737 11.1494 43.7681C13.8251 50.193 16.5008 56.618 19.1764 63.0431C19.2798 63.2884 19.3335 63.5517 19.3345 63.8179C19.3355 64.084 19.2838 64.3477 19.1823 64.5938C19.0808 64.8398 18.9315 65.0633 18.7431 65.2514C18.5548 65.4394 18.331 65.5886 18.0847 65.6897ZM36.472 60.6147C39.0752 61.3705 42.4711 60.049 45.1649 59.0006C51.5245 56.526 57.9031 54.0903 64.2712 51.6364C65.7599 51.0622 66.8336 49.5815 67.1136 48.0841C67.3128 47.0197 67.1059 45.9282 66.2069 45.2422C65.081 44.383 62.9409 44.1275 59.4303 45.1574L47.0471 48.7903C47.0827 49.3588 47.0349 49.9294 46.9053 50.4841C46.3389 53.1653 43.1456 54.8709 40.5301 54.17L28.7007 51.0004C28.457 50.9339 28.2495 50.7736 28.1236 50.5546C27.9977 50.3356 27.9636 50.0756 28.0288 49.8315C28.094 49.5875 28.2532 49.3792 28.4716 49.2521C28.6899 49.1251 28.9497 49.0896 29.1941 49.1536L41.075 52.3372C41.4881 52.4543 41.9204 52.4882 42.3467 52.4368C42.773 52.3854 43.1849 52.2497 43.5583 52.0378C43.9318 51.8258 44.2594 51.5417 44.522 51.202C44.7847 50.8623 44.9773 50.4738 45.0885 50.059C45.1997 49.6443 45.2274 49.2115 45.1699 48.786C45.1124 48.3605 44.9709 47.9506 44.7536 47.5802C44.5363 47.2098 44.2475 46.8863 43.9041 46.6285C43.5607 46.3707 43.1695 46.1838 42.7532 46.0785L33.8131 43.6829C33.7031 43.6531 33.5992 43.6037 33.5066 43.5372C30.6492 41.511 28.5325 40.7767 26.5943 40.8267C24.6431 40.8769 22.7493 41.7291 20.4282 42.8645C18.2762 43.9172 16.1819 44.918 14.1101 45.8997L19.648 59.1975L21.7782 58.1617C23.2766 57.4078 25.0079 57.2609 26.6119 57.7515L36.472 60.6147ZM62.0543 3.15659L63.3121 6.35239C63.3399 6.4256 63.3884 6.48912 63.4517 6.53514C63.5151 6.58116 63.5905 6.60769 63.6687 6.61147L67.0971 6.82093C67.1793 6.82581 67.2582 6.85536 67.3234 6.90573C67.3887 6.9561 67.4372 7.02495 67.4627 7.10331C67.4883 7.18166 67.4896 7.26589 67.4666 7.34502C67.4435 7.42415 67.3972 7.4945 67.3336 7.5469L64.6831 9.73126C64.622 9.78023 64.5765 9.84598 64.5522 9.92045C64.5279 9.99491 64.5259 10.0748 64.5464 10.1504L65.4068 13.4757C65.4274 13.5554 65.4235 13.6395 65.3957 13.717C65.3679 13.7944 65.3174 13.8618 65.2508 13.9101C65.1842 13.9585 65.1045 13.9858 65.0223 13.9883C64.94 13.9908 64.8588 13.9685 64.7894 13.9243L61.8927 12.0786C61.8272 12.0356 61.7506 12.0127 61.6723 12.0127C61.594 12.0127 61.5174 12.0356 61.4519 12.0786L58.5553 13.9243C58.4858 13.9685 58.4047 13.9908 58.3224 13.9883C58.2401 13.9858 58.1605 13.9585 58.0939 13.9101C58.0273 13.8618 57.9768 13.7944 57.949 13.717C57.9211 13.6395 57.9173 13.5554 57.9379 13.4757L58.7981 10.1504C58.8186 10.0748 58.8166 9.99491 58.7923 9.92044C58.768 9.84597 58.7225 9.78022 58.6614 9.73126L56.0118 7.5469C55.9482 7.49453 55.902 7.42424 55.8789 7.3452C55.8559 7.26615 55.8572 7.18201 55.8826 7.10371C55.9081 7.0254 55.9565 6.95657 56.0216 6.90616C56.0867 6.85575 56.1654 6.8261 56.2476 6.82106L59.676 6.61161C59.7542 6.60784 59.8296 6.58131 59.893 6.53529C59.9563 6.48927 60.0049 6.42575 60.0327 6.35253L61.2905 3.15673C61.3207 3.08014 61.3732 3.01441 61.4413 2.96808C61.5093 2.92176 61.5897 2.89698 61.6721 2.89698C61.7544 2.89698 61.8348 2.92176 61.9029 2.96808C61.9709 3.01441 62.0241 3.08 62.0543 3.15659ZM44.4496 40.894H41.5866C41.4631 40.894 41.3408 40.8697 41.2267 40.8224C41.1126 40.7752 41.009 40.7059 40.9216 40.6186C40.8343 40.5313 40.7651 40.4277 40.7178 40.3136C40.6705 40.1995 40.6462 40.0772 40.6462 39.9538C40.6462 37.1311 37.2334 35.7175 35.2376 37.7133C35.0612 37.8897 34.822 37.9888 34.5726 37.9888C34.3232 37.9888 34.084 37.8897 33.9076 37.7133L31.8831 35.6888C31.7068 35.5124 31.6078 35.2733 31.6078 35.0239C31.6078 34.7745 31.7068 34.5353 31.8831 34.359C33.8764 32.3656 32.462 28.9502 29.6428 28.9502C29.3934 28.9502 29.1542 28.8511 28.9779 28.6748C28.8015 28.4984 28.7025 28.2593 28.7025 28.0099V25.1468C28.7025 24.8974 28.8015 24.6583 28.9779 24.4819C29.1542 24.3056 29.3934 24.2065 29.6428 24.2065C32.462 24.2065 33.8764 20.7911 31.8831 18.7978C31.7068 18.6214 31.6078 18.3822 31.6078 18.1328C31.6078 17.8835 31.7068 17.6443 31.8831 17.4679L33.9076 15.4434C34.084 15.267 34.3232 15.1679 34.5726 15.1679C34.822 15.1679 35.0612 15.267 35.2376 15.4434C37.231 17.4367 40.6462 16.0222 40.6462 13.2031C40.6462 12.9537 40.7453 12.7145 40.9216 12.5382C41.098 12.3618 41.3372 12.2627 41.5866 12.2627H44.4496C44.5731 12.2627 44.6954 12.287 44.8095 12.3342C44.9237 12.3815 45.0273 12.4507 45.1147 12.5381C45.202 12.6254 45.2713 12.7291 45.3186 12.8432C45.3659 12.9573 45.3902 13.0796 45.3902 13.2031C45.3902 16.0222 48.8056 17.4367 50.7989 15.4434C50.8863 15.356 50.9899 15.2868 51.104 15.2395C51.2181 15.1923 51.3404 15.1679 51.4639 15.1679C51.5874 15.1679 51.7096 15.1923 51.8237 15.2395C51.9378 15.2868 52.0415 15.356 52.1288 15.4434L54.1533 17.4679C54.2407 17.5552 54.3099 17.6589 54.3572 17.773C54.4044 17.8871 54.4288 18.0093 54.4288 18.1328C54.4288 18.2563 54.4044 18.3786 54.3572 18.4927C54.3099 18.6068 54.2407 18.7104 54.1533 18.7978C52.1601 20.7911 53.5746 24.2065 56.3938 24.2065C56.6432 24.2065 56.8823 24.3056 57.0587 24.4819C57.235 24.6583 57.3341 24.8974 57.3341 25.1468V28.0099C57.3341 28.2593 57.235 28.4984 57.0587 28.6748C56.8823 28.8511 56.6432 28.9502 56.3938 28.9502C53.5746 28.9502 52.1601 32.3656 54.1533 34.359C54.2407 34.4463 54.3099 34.5499 54.3572 34.664C54.4044 34.7781 54.4288 34.9004 54.4288 35.0239C54.4288 35.1474 54.4044 35.2697 54.3572 35.3837C54.3099 35.4978 54.2407 35.6015 54.1533 35.6888L52.1288 37.7133C52.0415 37.8007 51.9378 37.8699 51.8237 37.9172C51.7096 37.9644 51.5874 37.9888 51.4639 37.9888C51.3404 37.9888 51.2181 37.9644 51.104 37.9172C50.9899 37.8699 50.8863 37.8007 50.7989 37.7133C48.8053 35.7201 45.3902 37.1345 45.3902 39.9538C45.3902 40.0772 45.3659 40.1995 45.3186 40.3136C45.2714 40.4277 45.2021 40.5313 45.1148 40.6186C45.0275 40.7059 44.9238 40.7752 44.8097 40.8224C44.6956 40.8697 44.5731 40.894 44.4496 40.894ZM43.0181 18.6698C41.454 18.6699 39.925 19.1338 38.6245 20.0029C37.324 20.872 36.3104 22.1072 35.7119 23.5524C35.1134 24.9975 34.9569 26.5877 35.2621 28.1218C35.5673 29.6559 36.3206 31.065 37.4267 32.171C38.5328 33.2769 39.942 34.0301 41.4762 34.3352C43.0103 34.6402 44.6004 34.4836 46.0455 33.8849C47.4906 33.2863 48.7257 32.2726 49.5947 30.972C50.4636 29.6714 50.9274 28.1423 50.9273 26.5781C50.9273 25.5396 50.7228 24.5112 50.3253 23.5517C49.9279 22.5922 49.3453 21.7203 48.6109 20.986C47.8765 20.2516 47.0047 19.669 46.0452 19.2716C45.0857 18.8742 44.0567 18.6698 43.0181 18.6698ZM10.7259 27.9626L11.9837 31.1584C12.0113 31.2317 12.0598 31.2953 12.1232 31.3415C12.1865 31.3876 12.262 31.4143 12.3402 31.4181L15.7686 31.6274C15.8508 31.6325 15.9295 31.6621 15.9946 31.7125C16.0597 31.763 16.1081 31.8318 16.1336 31.9101C16.159 31.9884 16.1603 32.0725 16.1373 32.1516C16.1142 32.2306 16.068 32.3009 16.0044 32.3533L13.3547 34.5372C13.2936 34.5862 13.248 34.652 13.2238 34.7265C13.1995 34.801 13.1975 34.8809 13.218 34.9566L14.0788 38.2813C14.0994 38.361 14.0955 38.4451 14.0677 38.5226C14.0399 38.6001 13.9893 38.6674 13.9227 38.7158C13.8561 38.7642 13.7764 38.7915 13.6941 38.794C13.6118 38.7965 13.5306 38.7741 13.4612 38.7299L10.5647 36.8841C10.4992 36.8413 10.4226 36.8184 10.3443 36.8184C10.266 36.8184 10.1894 36.8413 10.1239 36.8841L7.22723 38.7299C7.15778 38.7741 7.07662 38.7965 6.99431 38.794C6.912 38.7915 6.83234 38.7642 6.76571 38.7158C6.69908 38.6674 6.64856 38.6001 6.62073 38.5226C6.5929 38.4451 6.58905 38.361 6.60967 38.2813L7.47004 34.9561C7.49057 34.8805 7.48856 34.8006 7.46428 34.7261C7.43999 34.6516 7.39447 34.5858 7.33332 34.5368L4.6833 32.3527C4.61978 32.3004 4.57349 32.2301 4.55046 32.151C4.52742 32.072 4.52871 31.9878 4.55415 31.9095C4.5796 31.8312 4.62801 31.7624 4.69311 31.712C4.7582 31.6616 4.83696 31.6319 4.91914 31.6269L8.3475 31.418C8.42578 31.4141 8.50123 31.3875 8.56457 31.3414C8.62792 31.2952 8.6764 31.2316 8.70406 31.1582L9.96188 27.9624C9.99204 27.8858 10.0446 27.82 10.1126 27.7737C10.1807 27.7273 10.2612 27.7025 10.3435 27.7025C10.4259 27.7025 10.5063 27.7273 10.5744 27.7737C10.6425 27.82 10.6957 27.8859 10.7259 27.9626ZM17.0811 7.02997C15.8989 7.02994 14.7432 7.38049 13.7601 8.03729C12.7771 8.69409 12.011 9.62763 11.5585 10.7199C11.1061 11.8121 10.9877 13.014 11.2183 14.1735C11.4489 15.333 12.0182 16.3981 12.8542 17.2341C13.6902 18.0701 14.7552 18.6394 15.9148 18.8701C17.0743 19.1007 18.2762 18.9824 19.3684 18.5299C20.4607 18.0775 21.3942 17.3114 22.051 16.3284C22.7079 15.3454 23.0584 14.1897 23.0584 13.0075C23.0584 11.4222 22.4286 9.9018 21.3077 8.78082C20.1867 7.65984 18.6664 7.03004 17.0811 7.02997Z" fill="#F9893D"/>
</svg>
