<svg width="70" height="70" viewBox="0 0 70 70" fill="none" xmlns="http://www.w3.org/2000/svg">
<g clip-path="url(#clip0_1_13011)">
<path d="M36.1187 10.5149C23.3155 10.5149 12.9365 20.8939 12.9365 33.6971C12.9365 46.5002 23.3155 56.8792 36.1187 56.8792C48.9219 56.8792 59.3009 46.5002 59.3009 33.6971C59.3009 20.8939 48.9219 10.5149 36.1187 10.5149ZM36.1186 51.2872C26.4195 51.2872 18.5286 43.3963 18.5286 33.6972C18.5286 23.9981 26.4195 16.1072 36.1186 16.1072C45.8177 16.1072 53.7085 23.9981 53.7085 33.6972C53.7085 43.3963 45.8178 51.2872 36.1186 51.2872Z" fill="#F96B31"/>
<path d="M36.1181 20.822C29.0188 20.822 23.2432 26.5977 23.2432 33.697C23.2432 40.7962 29.0188 46.5719 36.1181 46.5719C43.2174 46.5719 48.993 40.7962 48.993 33.697C48.993 26.5977 43.2175 20.822 36.1181 20.822Z" fill="#F96B31"/>
<path d="M68.5391 35.6409V7.47041C68.5391 7.19862 68.3656 6.95703 68.1077 6.87022C67.8502 6.78354 67.5659 6.87118 67.4014 7.08774C63.8867 11.7229 61.9844 17.3803 61.9844 23.1973V33.5029C61.9844 34.6848 62.9425 35.6431 64.1246 35.6431H65.0168C64.1373 44.7271 63.5561 57.432 63.5561 58.9196C63.5561 61.2632 64.9986 63.1631 66.778 63.1631C68.5574 63.1631 69.9999 61.2631 69.9999 58.9196C69.9999 57.4318 69.4187 44.7249 68.5391 35.6409Z" fill="#F9893D"/>
<path d="M9.35389 30.0567C11.137 28.9766 12.3288 27.0183 12.3288 24.7813L11.4455 10.3409C11.4118 9.79049 10.9555 9.36133 10.404 9.36133C9.80752 9.36133 9.33228 9.86104 9.36195 10.4564L9.93631 22.0378C9.93631 22.6888 9.40844 23.2164 8.75766 23.2164C8.10674 23.2164 7.579 22.6885 7.579 22.0378L7.29203 10.4612C7.27686 9.84941 6.7766 9.36146 6.16451 9.36146C5.55242 9.36146 5.0523 9.84955 5.03699 10.4612L4.75002 22.0378C4.75002 22.6888 4.22215 23.2164 3.57137 23.2164C2.92045 23.2164 2.39271 22.6885 2.39271 22.0378L2.96707 10.4564C2.9966 9.86076 2.52109 9.36133 1.925 9.36133C1.37348 9.36133 0.917246 9.79049 0.883613 10.3409L0 24.7814C0 27.0184 1.19164 28.9766 2.97486 30.0569C4.13533 30.7597 4.78228 32.0739 4.63271 33.4225C3.62605 42.4948 2.94246 57.3063 2.94246 58.9197C2.94246 61.2633 4.38498 63.1632 6.16438 63.1632C7.94377 63.1632 9.38629 61.2632 9.38629 58.9197C9.38629 57.3063 8.70256 42.4948 7.69604 33.4225C7.54633 32.0745 8.19396 30.7593 9.35389 30.0567Z" fill="#F9893D"/>
</g>
<defs>
<clipPath id="clip0_1_13011">
<rect width="70" height="70" fill="white"/>
</clipPath>
</defs>
</svg>
