<svg width="84" height="84" viewBox="0 0 84 84" fill="none" xmlns="http://www.w3.org/2000/svg">
<circle cx="42" cy="42" r="42" fill="#1A1A1A"/>
<g clip-path="url(#clip0_4_452)">
<path fill-rule="evenodd" clip-rule="evenodd" d="M60.3268 47.2806H69.2254C69.9358 47.282 70.6168 47.5563 71.1192 48.0435C71.6216 48.5306 71.9045 49.1909 71.906 49.8799V65.7357C71.9045 66.4246 71.6217 67.085 71.1193 67.5721C70.6169 68.0593 69.9359 68.3336 69.2254 68.3351H68.2874V69.3885C68.2857 70.0774 68.0027 70.7376 67.5003 71.2246C66.9979 71.7117 66.317 71.986 65.6066 71.9874H39.1504C38.4399 71.9859 37.759 71.7116 37.2566 71.2244C36.7542 70.7372 36.4713 70.0769 36.4698 69.3879V67.2686H14.4914C14.2743 67.2686 14.066 67.185 13.9125 67.0361C13.759 66.8872 13.6727 66.6852 13.6727 66.4747V63.2996C13.6727 63.089 13.759 62.8871 13.9125 62.7382C14.066 62.5893 14.2743 62.5056 14.4914 62.5056H18.0504V60.1267C18.0504 60.0224 18.0716 59.9192 18.1127 59.8229C18.1538 59.7265 18.2141 59.639 18.2902 59.5653C18.3662 59.4915 18.4564 59.433 18.5558 59.3931C18.6551 59.3532 18.7616 59.3326 18.8691 59.3326H20.2277L20.5825 36.4757H20.3755C20.1583 36.4757 19.9501 36.3921 19.7965 36.2432C19.6429 36.0943 19.5566 35.8924 19.5566 35.6818V32.9397H13.229C13.1215 32.9397 13.0151 32.9191 12.9157 32.8792C12.8164 32.8393 12.7262 32.7809 12.6501 32.7071C12.5741 32.6334 12.5138 32.5459 12.4727 32.4496C12.4315 32.3532 12.4104 32.25 12.4104 32.1457V28.6635C12.4104 28.5592 12.4315 28.456 12.4727 28.3597C12.5138 28.2633 12.5741 28.1758 12.6501 28.1021C12.7262 28.0284 12.8164 27.9699 12.9157 27.93C13.0151 27.8901 13.1215 27.8695 13.229 27.8695H16.8635L39.8991 12.4685C40.0376 12.3758 40.2024 12.3268 40.3708 12.3284C40.5391 12.3299 40.7029 12.3819 40.8396 12.4772L63.7936 27.8239C63.8149 27.8381 63.8355 27.8533 63.8553 27.8695H67.4969C67.6045 27.8695 67.711 27.89 67.8103 27.9299C67.9097 27.9698 67.9999 28.0283 68.076 28.102C68.152 28.1758 68.2124 28.2633 68.2535 28.3596C68.2947 28.456 68.3158 28.5592 68.3158 28.6635V32.1457C68.3158 32.25 68.2947 32.3533 68.2535 32.4496C68.2124 32.5459 68.152 32.6335 68.076 32.7072C67.9999 32.7809 67.9097 32.8394 67.8103 32.8793C67.711 32.9192 67.6045 32.9397 67.4969 32.9397H61.169V35.6824C61.169 35.893 61.0827 36.0949 60.9292 36.2438C60.7756 36.3927 60.5674 36.4763 60.3502 36.4763H60.1164L60.3268 47.2806ZM36.4698 59.2506C36.4698 51.6224 36.6227 44.0251 36.7439 36.3937H36.5368C36.4293 36.3937 36.3228 36.3732 36.2234 36.3333C36.1241 36.2933 36.0338 36.2349 35.9578 36.1611C35.8817 36.0874 35.8214 35.9998 35.7802 35.9035C35.7391 35.8072 35.7179 35.7039 35.7179 35.5996V32.8572H28.8466V35.6001C28.8466 35.8107 28.7603 36.0127 28.6068 36.1616C28.4532 36.3105 28.2449 36.3942 28.0277 36.3942H27.8202L28.1751 59.2511H29.5338C29.7509 59.2511 29.9592 59.3347 30.1127 59.4836C30.2663 59.6325 30.3526 59.8345 30.3526 60.045V62.4241H34.2116V60.0445C34.2116 59.9403 34.2328 59.837 34.2739 59.7407C34.315 59.6444 34.3753 59.5569 34.4513 59.4831C34.5274 59.4094 34.6176 59.3509 34.7169 59.311C34.8163 59.2711 34.9227 59.2506 35.0303 59.2506H36.4698ZM44.1493 47.1981H52.8585L52.9111 36.3942H52.6981C52.4809 36.3942 52.2727 36.3105 52.1191 36.1616C51.9655 36.0127 51.8793 35.8107 51.8792 35.6001V32.8572H45.008V35.6001C45.0079 35.8107 44.9216 36.0127 44.7681 36.1616C44.6145 36.3105 44.4062 36.3942 44.189 36.3942H43.9815L44.1493 47.1981Z" fill="#F96B31"/>
<path fill-rule="evenodd" clip-rule="evenodd" d="M66.6499 53.4505C66.6485 53.1826 66.5381 52.9262 66.3428 52.7368C66.1475 52.5474 65.883 52.4404 65.6067 52.439H39.1505C38.8743 52.4404 38.6098 52.5474 38.4145 52.7368C38.2192 52.9262 38.1089 53.1827 38.1074 53.4505V69.3054C38.1088 69.5732 38.2192 69.8297 38.4145 70.0191C38.6098 70.2086 38.8743 70.3156 39.1505 70.317H65.6067C65.883 70.3156 66.1475 70.2086 66.3428 70.0192C66.5382 69.8298 66.6485 69.5733 66.6499 69.3054V53.4505ZM51.1617 67.2271C50.9445 67.2271 50.7363 67.1435 50.5827 66.9946C50.4292 66.8457 50.3429 66.6438 50.3429 66.4332C50.3429 66.2226 50.4292 66.0207 50.5827 65.8718C50.7363 65.7229 50.9445 65.6392 51.1617 65.6392H53.5954C53.8126 65.6392 54.0208 65.7229 54.1744 65.8718C54.3279 66.0207 54.4142 66.2226 54.4142 66.4332C54.4142 66.6438 54.3279 66.8457 54.1744 66.9946C54.0208 67.1435 53.8126 67.2271 53.5954 67.2271H51.1617ZM56.3158 67.2271C56.0986 67.2271 55.8904 67.1435 55.7368 66.9946C55.5833 66.8457 55.497 66.6438 55.497 66.4332C55.497 66.2226 55.5833 66.0207 55.7368 65.8718C55.8904 65.7229 56.0986 65.6392 56.3158 65.6392H58.7497C58.9668 65.6392 59.1751 65.7229 59.3286 65.8718C59.4822 66.0207 59.5685 66.2226 59.5685 66.4332C59.5685 66.6438 59.4822 66.8457 59.3286 66.9946C59.1751 67.1435 58.9668 67.2271 58.7497 67.2271H56.3158ZM61.4699 67.2271C61.2528 67.2271 61.0445 67.1435 60.891 66.9946C60.7374 66.8457 60.6511 66.6438 60.6511 66.4332C60.6511 66.2226 60.7374 66.0207 60.891 65.8718C61.0445 65.7229 61.2528 65.6392 61.4699 65.6392H63.9037C64.1208 65.6392 64.3291 65.7229 64.4826 65.8718C64.6362 66.0207 64.7225 66.2226 64.7225 66.4332C64.7225 66.6438 64.6362 66.8457 64.4826 66.9946C64.3291 67.1435 64.1208 67.2271 63.9037 67.2271H61.4699ZM46.0075 67.2271C45.7904 67.2271 45.5821 67.1435 45.4286 66.9946C45.275 66.8457 45.1888 66.6438 45.1888 66.4332C45.1888 66.2226 45.275 66.0207 45.4286 65.8718C45.5821 65.7229 45.7904 65.6392 46.0075 65.6392H48.4414C48.6586 65.6392 48.8668 65.7229 49.0204 65.8718C49.174 66.0207 49.2602 66.2226 49.2602 66.4332C49.2602 66.6438 49.174 66.8457 49.0204 66.9946C48.8668 67.1435 48.6586 67.2271 48.4414 67.2271H46.0075ZM40.8535 67.2271C40.6364 67.2271 40.4281 67.1435 40.2746 66.9946C40.121 66.8457 40.0348 66.6438 40.0348 66.4332C40.0348 66.2226 40.121 66.0207 40.2746 65.8718C40.4281 65.7229 40.6364 65.6392 40.8535 65.6392H43.2876C43.5047 65.6392 43.713 65.7229 43.8665 65.8718C44.0201 66.0207 44.1063 66.2226 44.1063 66.4332C44.1063 66.6438 44.0201 66.8457 43.8665 66.9946C43.713 67.1435 43.5047 67.2271 43.2876 67.2271H40.8535ZM49.0471 58.3448C48.9387 58.3461 48.8311 58.3265 48.7305 58.2872C48.63 58.2479 48.5385 58.1896 48.4614 58.1158C48.3843 58.0419 48.323 57.9539 48.2812 57.8569C48.2394 57.7599 48.2179 57.6559 48.2179 57.5508C48.2179 57.4456 48.2394 57.3416 48.2812 57.2446C48.323 57.1476 48.3843 57.0596 48.4614 56.9857C48.5385 56.9119 48.63 56.8536 48.7305 56.8143C48.8311 56.775 48.9387 56.7554 49.0471 56.7567H62.3142C62.5296 56.7593 62.7353 56.8441 62.8866 56.9928C63.038 57.1414 63.1229 57.3419 63.1229 57.5508C63.1229 57.7596 63.038 57.9601 62.8866 58.1087C62.7353 58.2574 62.5296 58.3422 62.3142 58.3448H49.0471ZM40.8275 54.9977H44.8922C45.1093 54.9977 45.3176 55.0813 45.4712 55.2302C45.6248 55.3791 45.711 55.581 45.7111 55.7916V59.7332C45.7111 59.8375 45.6899 59.9407 45.6487 60.0371C45.6076 60.1334 45.5473 60.221 45.4712 60.2947C45.3952 60.3684 45.3049 60.4269 45.2055 60.4668C45.1062 60.5067 44.9997 60.5272 44.8922 60.5272H40.8275C40.72 60.5272 40.6135 60.5067 40.5142 60.4668C40.4148 60.4269 40.3246 60.3684 40.2485 60.2947C40.1725 60.2209 40.1122 60.1334 40.071 60.0371C40.0299 59.9407 40.0087 59.8375 40.0088 59.7332V55.7916C40.0088 55.5811 40.0951 55.3791 40.2486 55.2302C40.4021 55.0813 40.6104 54.9977 40.8275 54.9977Z" fill="#1A1A1A"/>
<path fill-rule="evenodd" clip-rule="evenodd" d="M21.8596 59.2506H26.5436L26.1888 36.3942H22.2144L21.8596 59.2506Z" fill="#F9893D"/>
<path d="M19.688 60.8385H28.7151V62.4234H19.688V60.8385Z" fill="#F9893D"/>
<path fill-rule="evenodd" clip-rule="evenodd" d="M19.7395 27.787H60.9862L40.3629 13.9988L19.7395 27.787Z" fill="#F9893D"/>
<path d="M21.1941 32.8571H27.2088V34.8061H21.1941V32.8571Z" fill="#F9893D"/>
<path d="M37.3555 32.8571H43.3702V34.8061H37.3555V32.8571Z" fill="#F9893D"/>
<path d="M53.5168 32.8571H59.5315V34.8061H53.5168V32.8571Z" fill="#F9893D"/>
<path fill-rule="evenodd" clip-rule="evenodd" d="M14.0474 31.2694H66.6784V29.3751H14.0474V31.2694Z" fill="#F9893D"/>
<path d="M35.8494 60.8385H36.4699V62.4234H35.8494V60.8385Z" fill="#F9893D"/>
<path fill-rule="evenodd" clip-rule="evenodd" d="M36.4697 65.5981V64.0116H29.5339H18.869H15.3103V65.5981H36.4697Z" fill="#F9893D"/>
<path d="M41.6462 56.5857H44.0733V58.9392H41.6462V56.5857Z" fill="#F9893D"/>
<path fill-rule="evenodd" clip-rule="evenodd" d="M68.2874 66.664H69.2255C69.5017 66.6627 69.7662 66.5557 69.9615 66.3663C70.1568 66.1769 70.2672 65.9204 70.2685 65.6525V56.9149H68.2874V66.664Z" fill="#1A1A1A"/>
<path fill-rule="evenodd" clip-rule="evenodd" d="M54.4897 47.1981H58.6953L58.4848 36.3942H54.5424L54.4897 47.1981Z" fill="#F9893D"/>
<path fill-rule="evenodd" clip-rule="evenodd" d="M40.0885 50.851V49.7975C40.0901 49.1506 40.3397 48.5275 40.7887 48.0492C41.2378 47.5708 41.8542 47.2715 42.5182 47.2094L42.3503 36.3942H38.3756L38.1428 51.0424C38.4627 50.9156 38.805 50.8506 39.1505 50.851H40.0885Z" fill="#F9893D"/>
<path d="M68.2874 53.8583H70.2685V55.3269H68.2874V53.8583Z" fill="#F9893D"/>
<path fill-rule="evenodd" clip-rule="evenodd" d="M67.9941 52.2704H70.2686V49.797C70.2672 49.5291 70.1569 49.2727 69.9616 49.0833C69.7662 48.8939 69.5017 48.7869 69.2255 48.7855H42.7694C42.4932 48.7869 42.2286 48.8938 42.0333 49.0832C41.8379 49.2726 41.7275 49.5291 41.7261 49.797V50.8505H65.6068C65.9587 50.8504 66.3072 50.9178 66.6322 51.0488C66.9572 51.1797 67.2523 51.3715 67.5007 51.6134C67.6994 51.8062 67.8659 52.0278 67.9941 52.2704Z" fill="#1A1A1A"/>
</g>
<defs>
<clipPath id="clip0_4_452">
<rect width="60" height="60" fill="white" transform="translate(12.158 12.1579)"/>
</clipPath>
</defs>
</svg>
