<svg width="141" height="35" viewBox="0 0 141 35" fill="none" xmlns="http://www.w3.org/2000/svg">
<path d="M93.1453 25.0233C91.3909 23.5062 84.4724 22.8496 83.1263 21.7287C80.7263 18.4399 89.3992 18.27 89.4433 21.5419L94.0501 20.6362C92.8695 16.6624 90.2709 15.5246 85.8793 15.5076C79.8767 14.783 75.0106 21.491 80.3015 25.3799C82.0394 26.5687 86.0393 27.4517 88.6544 28.0914C93.1508 31.0633 82.5084 33.1408 82.3318 28.1367L77.4326 28.9235C78.6629 35.473 88.4834 36.4353 92.555 32.9766C94.9108 31.0293 95.6115 26.9366 93.1453 25.0233Z" fill="#E8E8E8"/>
<path d="M115.942 24.7973C115.627 12.4682 97.04 12.6833 97.0786 25.052C96.549 38.5302 116.659 38.0377 115.942 24.7973ZM109.9 28.8956C105.051 33.0676 98.7559 26.4558 103.125 21.7121C108.008 17.5458 114.22 24.1463 109.9 28.8956Z" fill="#E8E8E8"/>
<path d="M125.464 16.5771C125.332 13.9562 127.864 14.3468 129.635 14.7544L130.292 11.2957C122.055 9.17291 120.146 12.2523 120.719 20.3585H118.353V25.2211H120.719V34.9519H125.459V25.2211H127.825V20.3585H125.459C125.459 20.2396 125.459 16.7753 125.464 16.5828V16.5771Z" fill="#E8E8E8"/>
<path d="M140.592 30.0737C136.443 31.8965 137.397 28.3076 137.303 25.2055H139.681V20.3542H137.303C137.303 18.4975 137.314 12.3839 137.27 10.6348L132.581 15.4973V20.3599H130.214V25.2112H132.581C132.25 32.5984 132.868 36.759 141.005 34.1778L140.592 30.0794V30.0737Z" fill="#E8E8E8"/>
<path d="M16.0217 10.6677L11.8287 26.7103L7.63015 10.6677H0V34.9409H4.73919V15.5246L9.46183 34.9409H14.201L18.9292 15.5246V34.9409H23.6683V10.6677H16.0272H16.0217Z" fill="#E8E8E8"/>
<path d="M42.3387 32.2124C41.6381 28.9801 42.8353 21.2306 41.5112 18.3153C38.7085 13.7471 28.1488 14.4037 26.7033 20.2456L30.7694 21.791C31.3873 18.3549 37.8478 18.4059 37.4009 22.1703C36.0879 22.9061 30.5211 23.6421 28.8549 24.6214C20.4745 30.9501 32.0218 38.8864 37.7871 32.6936C37.9416 33.2257 38.2726 34.471 38.4216 34.805H43.2049C42.7856 33.888 42.4932 33.0162 42.3387 32.2067V32.2124ZM37.4009 26.5517C38.4988 31.284 31.4866 34.171 30.7694 29.0537C30.6701 26.2177 35.6686 26.3422 37.4009 25.5101V26.5517Z" fill="#E8E8E8"/>
<path d="M53.543 15.5645C51.6396 15.723 50.961 16.1645 49.7086 18.0948V15.5645H49.7031L44.9805 20.41V34.9468H49.7197C50.2162 30.7635 47.5294 16.6457 55.2312 20.8289C55.5843 19.7987 56.3622 17.5514 56.7264 16.5041C55.7057 15.8758 54.6464 15.5701 53.543 15.5701V15.5645Z" fill="#E8E8E8"/>
<path d="M67.4738 24.0554L75.7605 15.553H68.9745L63.9208 20.7608V0.976562L59.1816 5.83347V34.941H63.9208V27.6896L64.1305 27.4858L71.391 34.941H78.1218L67.4738 24.0554Z" fill="#E8E8E8"/>
</svg>
